<svg width="28" height="28" viewBox="0 0 28 28" fill="none" xmlns="http://www.w3.org/2000/svg">
<path fill-rule="evenodd" clip-rule="evenodd" d="M3.49999 14C3.49999 13.3557 4.02232 12.8334 4.66666 12.8334H23.3333C23.9777 12.8334 24.5 13.3557 24.5 14V22.1667H25.6667C26.311 22.1667 26.8333 22.689 26.8333 23.3334C26.8333 23.9777 26.311 24.5 25.6667 24.5H2.33332C1.68899 24.5 1.16666 23.9777 1.16666 23.3334C1.16666 22.689 1.68899 22.1667 2.33332 22.1667H3.49999V14ZM5.83332 22.1667H22.1667V15.1667H5.83332V22.1667Z" fill="#59C09B"/>
<path fill-rule="evenodd" clip-rule="evenodd" d="M6.47823 17.6232C6.80668 17.4589 7.19328 17.4589 7.52173 17.6232L9.33331 18.529L11.1449 17.6232C11.4733 17.4589 11.8599 17.4589 12.1884 17.6232L14 18.529L15.8116 17.6232C16.14 17.4589 16.5266 17.4589 16.8551 17.6232L18.6666 18.529L20.4782 17.6232C20.8067 17.4589 21.1933 17.4589 21.5217 17.6232L23.8551 18.7898C24.4314 19.078 24.665 19.7788 24.3768 20.3551C24.0887 20.9314 23.3879 21.165 22.8116 20.8768L21 19.971L19.1884 20.8768C18.8599 21.0411 18.4733 21.0411 18.1449 20.8768L16.3333 19.971L14.5217 20.8768C14.1933 21.0411 13.8067 21.0411 13.4782 20.8768L11.6666 19.971L9.85506 20.8768C9.52661 21.0411 9.14001 21.0411 8.81156 20.8768L6.99998 19.971L5.1884 20.8768C4.61209 21.165 3.9113 20.9314 3.62315 20.3551C3.335 19.7788 3.56859 19.078 4.1449 18.7898L6.47823 17.6232Z" fill="#59C09B"/>
<path fill-rule="evenodd" clip-rule="evenodd" d="M18.6667 7.58337C19.311 7.58337 19.8333 8.10571 19.8333 8.75004V14C19.8333 14.6444 19.311 15.1667 18.6667 15.1667C18.0223 15.1667 17.5 14.6444 17.5 14V8.75004C17.5 8.10571 18.0223 7.58337 18.6667 7.58337Z" fill="#59C09B"/>
<path fill-rule="evenodd" clip-rule="evenodd" d="M14 7.58337C14.6443 7.58337 15.1666 8.10571 15.1666 8.75004V14C15.1666 14.6444 14.6443 15.1667 14 15.1667C13.3556 15.1667 12.8333 14.6444 12.8333 14V8.75004C12.8333 8.10571 13.3556 7.58337 14 7.58337Z" fill="#59C09B"/>
<path fill-rule="evenodd" clip-rule="evenodd" d="M9.33332 7.58337C9.97766 7.58337 10.5 8.10571 10.5 8.75004V14C10.5 14.6444 9.97766 15.1667 9.33332 15.1667C8.68899 15.1667 8.16666 14.6444 8.16666 14V8.75004C8.16666 8.10571 8.68899 7.58337 9.33332 7.58337Z" fill="#59C09B"/>
<path fill-rule="evenodd" clip-rule="evenodd" d="M18.6667 3.5C19.311 3.5 19.8333 4.02233 19.8333 4.66667V5.83333C19.8333 6.47767 19.311 7 18.6667 7C18.0223 7 17.5 6.47767 17.5 5.83333V4.66667C17.5 4.02233 18.0223 3.5 18.6667 3.5Z" fill="#59C09B"/>
<path fill-rule="evenodd" clip-rule="evenodd" d="M14 3.5C14.6443 3.5 15.1666 4.02233 15.1666 4.66667V5.83333C15.1666 6.47767 14.6443 7 14 7C13.3556 7 12.8333 6.47767 12.8333 5.83333V4.66667C12.8333 4.02233 13.3556 3.5 14 3.5Z" fill="#59C09B"/>
<path fill-rule="evenodd" clip-rule="evenodd" d="M9.33332 3.5C9.97766 3.5 10.5 4.02233 10.5 4.66667V5.83333C10.5 6.47767 9.97766 7 9.33332 7C8.68899 7 8.16666 6.47767 8.16666 5.83333V4.66667C8.16666 4.02233 8.68899 3.5 9.33332 3.5Z" fill="#59C09B"/>
<path fill-rule="evenodd" clip-rule="evenodd" d="M4.66667 12.8334C5.311 12.8334 5.83333 13.3557 5.83333 14V23.3334C5.83333 23.9777 5.311 24.5 4.66667 24.5C4.02233 24.5 3.5 23.9777 3.5 23.3334V14C3.5 13.3557 4.02233 12.8334 4.66667 12.8334Z" fill="#59C09B"/>
<path fill-rule="evenodd" clip-rule="evenodd" d="M23.3333 12.8334C23.9777 12.8334 24.5 13.3557 24.5 14V23.3334C24.5 23.9777 23.9777 24.5 23.3333 24.5C22.689 24.5 22.1667 23.9777 22.1667 23.3334V14C22.1667 13.3557 22.689 12.8334 23.3333 12.8334Z" fill="#59C09B"/>
</svg>
