<svg width="30" height="30" viewBox="0 0 30 30" fill="none" xmlns="http://www.w3.org/2000/svg">
<circle cx="15" cy="15" r="15" fill="#59C09B"/>
<g clip-path="url(#clip0_2845_279)">
<path d="M21.8478 10.3043H19.9696L18.9326 8.73912C18.5413 8.15216 17.8565 7.79999 17.1522 7.79999H12.8478C12.1435 7.79999 11.4587 8.15216 11.0674 8.73912L10.0304 10.3043H8.15217C6.9587 10.3043 6 11.263 6 12.4565V20.0478C6 21.2413 6.9587 22.2 8.15217 22.2H21.8478C23.0413 22.2 24 21.2413 24 20.0478V12.4565C24 11.263 23.0413 10.3043 21.8478 10.3043ZM15 20.4391C12.3196 20.4391 10.1478 18.2674 10.1478 15.5869C10.1478 12.9065 12.3196 10.7543 15 10.7543C17.6804 10.7543 19.8522 12.9261 19.8522 15.6065C19.8522 18.2674 17.6804 20.4391 15 20.4391ZM21.5739 13.3369C21.5543 13.3369 21.5348 13.3369 21.4957 13.3369H20.713C20.3609 13.3174 20.087 13.0239 20.1065 12.6717C20.1261 12.3391 20.3804 12.0848 20.713 12.0652H21.4957C21.8478 12.0456 22.1413 12.3196 22.1609 12.6717C22.1804 13.0239 21.9261 13.3174 21.5739 13.3369Z" fill="#FFFAFA"/>
<path d="M15 12.9065C13.513 12.9065 12.3 14.1195 12.3 15.6065C12.3 17.0935 13.513 18.2869 15 18.2869C16.4869 18.2869 17.7 17.0739 17.7 15.5869C17.7 14.1 16.4869 12.9065 15 12.9065Z" fill="#FFFAFA"/>
</g>
<defs>
<clipPath id="clip0_2845_279">
<rect width="18" height="18" fill="white" transform="translate(6 6)"/>
</clipPath>
</defs>
</svg>
