<svg width="21" height="21" viewBox="0 0 21 21" fill="none" xmlns="http://www.w3.org/2000/svg">
<rect width="21" height="21" rx="10.5" fill="#FF0000"/>
<path d="M12.396 8.321H9.38098V10.112C9.50698 9.944 9.69298 9.803 9.93898 9.689C10.191 9.575 10.458 9.518 10.74 9.518C11.244 9.518 11.652 9.626 11.964 9.842C12.282 10.058 12.507 10.331 12.639 10.661C12.777 10.991 12.846 11.339 12.846 11.705C12.846 12.149 12.759 12.545 12.585 12.893C12.417 13.235 12.162 13.505 11.82 13.703C11.484 13.901 11.07 14 10.578 14C9.92398 14 9.39898 13.838 9.00298 13.514C8.60698 13.19 8.36998 12.761 8.29198 12.227H9.29098C9.35698 12.509 9.50398 12.734 9.73198 12.902C9.95998 13.064 10.245 13.145 10.587 13.145C11.013 13.145 11.331 13.016 11.541 12.758C11.757 12.5 11.865 12.158 11.865 11.732C11.865 11.3 11.757 10.97 11.541 10.742C11.325 10.508 11.007 10.391 10.587 10.391C10.293 10.391 10.044 10.466 9.83998 10.616C9.64198 10.76 9.49798 10.958 9.40798 11.21H8.43598V7.421H12.396V8.321Z" fill="white"/>
</svg>
