<svg width="42" height="39" viewBox="0 0 42 39" fill="none" xmlns="http://www.w3.org/2000/svg">
<path d="M36.6719 9.75C36.6719 6.38442 32.2647 3.65625 26.8281 3.65625C21.3916 3.65625 16.9844 6.38442 16.9844 9.75C16.9844 12.9389 20.943 15.5513 25.9844 15.8175L30.3438 18.2812L30.0548 15.5019C33.9044 14.6744 36.6719 12.4148 36.6719 9.75Z" fill="#BFBFBF"/>
<path d="M26.6875 14.5988C21.6461 14.3325 17.6875 11.7201 17.6875 8.53129C17.6913 8.04629 17.7863 7.56508 17.9687 7.10657C17.3403 7.88143 16.9971 8.80297 16.9844 9.75004C16.9844 12.9389 20.943 15.5513 25.9844 15.8176L30.3438 18.2813L30.1652 16.5647L26.6875 14.5988Z" fill="#8F8F8F"/>
<path d="M26.828 7.3125C26.828 3.61055 21.7915 0.609375 15.578 0.609375C9.36449 0.609375 4.328 3.61055 4.328 7.3125C4.328 10.4812 8.02855 13.1345 12.9947 13.8328L12.0624 17.0625L16.497 13.9882C22.2788 13.7109 26.828 10.8298 26.828 7.3125Z" fill="#4EACF2"/>
<path d="M14.2596 15.539L14.8292 13.5634C14.8637 13.4431 14.8702 13.318 14.8485 13.1955C14.8267 13.073 14.777 12.9554 14.7024 12.8497C14.6277 12.744 14.5296 12.6521 14.4136 12.5795C14.2977 12.507 14.1662 12.4551 14.0269 12.4269C9.61269 11.522 6.43738 9.03149 6.43738 6.09369C6.4704 5.29062 6.70459 4.50339 7.12371 3.78659C7.54284 3.0698 8.13685 2.4406 8.86457 1.94263C6.11605 3.16503 4.328 5.11199 4.328 7.31244C4.328 10.4812 8.02855 13.1344 12.9947 13.8328L12.0624 17.0624L14.2596 15.539Z" fill="#1366A5"/>
<path d="M40.8906 36.5625C35.0069 38.5235 28.4931 38.5235 22.6094 36.5625L23.4531 32.8959C23.6288 32.1335 23.9912 31.4126 24.5156 30.7819C25.0401 30.1512 25.7145 29.6253 26.4934 29.2396C28.0943 28.4471 29.9063 28.0305 31.75 28.0313C33.5931 28.0312 35.4043 28.4482 37.0045 29.2409C37.7834 29.6265 38.4578 30.1524 38.9823 30.7831C39.5067 31.4139 39.8691 32.1347 40.0448 32.8971L40.8906 36.5625Z" fill="#E86A38"/>
<path d="M26.2656 33.6624C26.4158 32.8156 26.7629 32.004 27.2859 31.2769C27.8089 30.5499 28.4968 29.9225 29.308 29.4328C30.4799 28.7547 31.8087 28.3071 33.2012 28.1214C30.8844 27.8403 28.5254 28.2347 26.4955 29.2426C25.7166 29.6283 25.0422 30.1542 24.5177 30.7849C23.9933 31.4157 23.6309 32.1365 23.4552 32.8989L22.6094 36.5625C23.5639 36.8785 24.5395 37.1447 25.5309 37.3595L26.2656 33.6624Z" fill="#8C3717"/>
<path d="M18.3905 36.5625C12.5068 38.5235 5.99297 38.5235 0.109253 36.5625L0.953003 32.8959C1.12872 32.1335 1.49103 31.4126 2.0155 30.7819C2.53997 30.1512 3.21441 29.6253 3.99332 29.2396C5.59423 28.4471 7.40618 28.0305 9.24988 28.0313C11.093 28.0312 12.9042 28.4482 14.5043 29.2409C15.2832 29.6265 15.9577 30.1524 16.4821 30.7831C17.0066 31.4139 17.3689 32.1347 17.5446 32.8971L18.3905 36.5625Z" fill="#E86A38"/>
<path d="M3.7655 33.6624C3.91566 32.8156 4.26276 32.004 4.78574 31.2769C5.30873 30.5499 5.99671 29.9225 6.80793 29.4328C7.97973 28.7547 9.30855 28.3071 10.7011 28.1214C8.38427 27.8403 6.02531 28.2347 3.99543 29.2426C3.21651 29.6283 2.54208 30.1542 2.01761 30.7849C1.49314 31.4157 1.13083 32.1365 0.955112 32.8989L0.109253 36.5625C1.06382 36.8785 2.0394 37.1447 3.03074 37.3595L3.7655 33.6624Z" fill="#8C3717"/>
<path d="M29.6405 36.5625C23.7568 38.5235 17.243 38.5235 11.3593 36.5625L12.203 32.8959C12.3787 32.1335 12.741 31.4126 13.2655 30.7819C13.79 30.1512 14.4644 29.6253 15.2433 29.2396C16.8442 28.4471 18.6562 28.0305 20.4999 28.0313C22.343 28.0312 24.1542 28.4482 25.7543 29.2409C26.5332 29.6265 27.2077 30.1524 27.7321 30.7831C28.2566 31.4139 28.6189 32.1347 28.7946 32.8971L29.6405 36.5625Z" fill="#F9B938"/>
<path d="M20.5 28.0312C22.83 28.0312 24.7188 26.3943 24.7188 24.375C24.7188 22.3557 22.83 20.7188 20.5 20.7188C18.17 20.7188 16.2812 22.3557 16.2812 24.375C16.2812 26.3943 18.17 28.0312 20.5 28.0312Z" fill="#FFCAB3"/>
<path d="M15.0155 33.6624C15.1657 32.8156 15.5128 32.004 16.0357 31.2769C16.5587 30.5499 17.2467 29.9225 18.0579 29.4328C19.2297 28.7547 20.5585 28.3071 21.9511 28.1214C19.6343 27.8403 17.2753 28.2347 15.2454 29.2426C14.4665 29.6283 13.7921 30.1542 13.2676 30.7849C12.7431 31.4157 12.3808 32.1365 12.2051 32.8989L11.3593 36.5625C12.3138 36.8785 13.2894 37.1447 14.2807 37.3595L15.0155 33.6624Z" fill="#F99C16"/>
<path d="M18.3905 24.375C18.392 23.5654 18.7035 22.7791 19.2761 22.1395C19.8487 21.4999 20.6501 21.043 21.5546 20.8406C20.9304 20.6985 20.2769 20.6823 19.6444 20.7934C19.0119 20.9046 18.4172 21.14 17.9061 21.4815C17.3951 21.8231 16.9812 22.2617 16.6965 22.7637C16.4117 23.2656 16.2637 23.8175 16.2637 24.3768C16.2637 24.9362 16.4117 25.488 16.6965 25.99C16.9812 26.4919 17.3951 26.9306 17.9061 27.2721C18.4172 27.6137 19.0119 27.8491 19.6444 27.9602C20.2769 28.0713 20.9304 28.0552 21.5546 27.913C20.6494 27.7105 19.8475 27.2531 19.2748 26.6127C18.7021 25.9723 18.3911 25.1852 18.3905 24.375Z" fill="#F9AA8F"/>
<path d="M9.24988 28.0312C11.5798 28.0312 13.4686 26.3943 13.4686 24.375C13.4686 22.3557 11.5798 20.7188 9.24988 20.7188C6.91993 20.7188 5.03113 22.3557 5.03113 24.375C5.03113 26.3943 6.91993 28.0312 9.24988 28.0312Z" fill="#FFCAB3"/>
<path d="M7.14052 24.375C7.142 23.5654 7.45347 22.7791 8.0261 22.1395C8.59872 21.4999 9.40011 21.043 10.3046 20.8406C9.6804 20.6985 9.0269 20.6823 8.39438 20.7934C7.76186 20.9046 7.16718 21.14 6.65612 21.4815C6.14506 21.8231 5.73123 22.2617 5.44649 22.7637C5.16174 23.2656 5.01367 23.8175 5.01367 24.3768C5.01367 24.9362 5.16174 25.488 5.44649 25.99C5.73123 26.4919 6.14506 26.9306 6.65612 27.2721C7.16718 27.6137 7.76186 27.8491 8.39438 27.9602C9.0269 28.0713 9.6804 28.0552 10.3046 27.913C9.39941 27.7105 8.59751 27.2531 8.02481 26.6127C7.45211 25.9723 7.14107 25.1852 7.14052 24.375Z" fill="#F9AA8F"/>
<path d="M31.75 28.0312C34.08 28.0312 35.9688 26.3943 35.9688 24.375C35.9688 22.3557 34.08 20.7188 31.75 20.7188C29.42 20.7188 27.5312 22.3557 27.5312 24.375C27.5312 26.3943 29.42 28.0312 31.75 28.0312Z" fill="#FFCAB3"/>
<path d="M29.6405 24.375C29.642 23.5654 29.9535 22.7791 30.5261 22.1395C31.0987 21.4999 31.9001 21.043 32.8046 20.8406C32.1804 20.6985 31.5269 20.6823 30.8944 20.7934C30.2619 20.9046 29.6672 21.14 29.1561 21.4815C28.6451 21.8231 28.2312 22.2617 27.9465 22.7637C27.6617 23.2656 27.5137 23.8175 27.5137 24.3768C27.5137 24.9362 27.6617 25.488 27.9465 25.99C28.2312 26.4919 28.6451 26.9306 29.1561 27.2721C29.6672 27.6137 30.2619 27.8491 30.8944 27.9602C31.5269 28.0713 32.1804 28.0552 32.8046 27.913C31.8994 27.7105 31.0975 27.2531 30.5248 26.6127C29.9521 25.9723 29.6411 25.1852 29.6405 24.375Z" fill="#F9AA8F"/>
<path d="M41.5796 36.4406L40.7359 32.774C40.5404 31.9263 40.1375 31.1249 39.5543 30.4236C38.9711 29.7224 38.2213 29.1376 37.3553 28.7088C36.5219 28.2995 35.6302 27.9865 34.7031 27.7777C35.529 27.2403 36.1389 26.4913 36.4464 25.6368C36.754 24.7823 36.7436 23.8657 36.4167 23.0166C36.0899 22.1675 35.4631 21.4291 34.6252 20.9058C33.7872 20.3825 32.7806 20.101 31.7478 20.101C30.715 20.101 29.7084 20.3825 28.8705 20.9058C28.0326 21.4291 27.4058 22.1675 27.0789 23.0166C26.7521 23.8657 26.7417 24.7823 27.0492 25.6368C27.3568 26.4913 27.9667 27.2403 28.7926 27.7777C27.8663 27.9878 26.9757 28.3019 26.1432 28.7119L26.1221 28.7228C26.1151 28.7228 26.1088 28.7149 26.101 28.7113C25.2691 28.3014 24.3789 27.9875 23.4531 27.7777C24.279 27.2403 24.8889 26.4913 25.1964 25.6368C25.504 24.7823 25.4936 23.8657 25.1667 23.0166C24.8399 22.1675 24.2131 21.4291 23.3752 20.9058C22.5372 20.3825 21.5306 20.101 20.4978 20.101C19.465 20.101 18.4584 20.3825 17.6205 20.9058C16.7826 21.4291 16.1558 22.1675 15.8289 23.0166C15.5021 23.8657 15.4917 24.7823 15.7992 25.6368C16.1068 26.4913 16.7167 27.2403 17.5426 27.7777C16.6168 27.9875 15.7266 28.3014 14.8946 28.7113C14.8869 28.7149 14.8806 28.7198 14.8735 28.7235L14.851 28.7113C14.0191 28.3014 13.1289 27.9875 12.2031 27.7777C13.029 27.2403 13.6389 26.4913 13.9464 25.6368C14.254 24.7823 14.2436 23.8657 13.9167 23.0166C13.5899 22.1675 12.9631 21.4291 12.1252 20.9058C11.2872 20.3825 10.2806 20.101 9.24783 20.101C8.21504 20.101 7.20842 20.3825 6.37049 20.9058C5.53257 21.4291 4.9058 22.1675 4.57895 23.0166C4.25209 23.8657 4.24169 24.7823 4.54924 25.6368C4.85679 26.4913 5.46669 27.2403 6.29259 27.7777C5.36675 27.9875 4.47655 28.3014 3.64463 28.7113C2.77861 29.1401 2.02874 29.7248 1.44557 30.4261C0.862406 31.1273 0.459493 31.9288 0.264 32.7764L-0.57975 36.4406C-0.612406 36.5816 -0.58649 36.728 -0.506584 36.854C-0.426678 36.98 -0.297931 37.0775 -0.143109 37.1292C2.84543 38.1294 6.02167 38.642 9.22533 38.641C9.71423 38.641 10.2041 38.6293 10.6949 38.6057C12.1013 38.538 13.4992 38.3721 14.8749 38.1097C18.5796 38.8244 22.4203 38.8244 26.1249 38.1097C31.1321 39.0751 36.3569 38.7359 41.1423 37.1347C41.2985 37.0829 41.4284 36.9847 41.5085 36.8575C41.5887 36.7302 41.6139 36.5824 41.5796 36.4406ZM28.2343 24.375C28.2343 23.7723 28.4405 23.1833 28.8268 22.6822C29.2131 22.1811 29.7622 21.7906 30.4046 21.56C31.047 21.3294 31.7538 21.2691 32.4358 21.3866C33.1178 21.5042 33.7442 21.7944 34.2359 22.2205C34.7275 22.6466 35.0624 23.1895 35.198 23.7805C35.3337 24.3716 35.264 24.9842 34.998 25.5409C34.7319 26.0977 34.2813 26.5735 33.7031 26.9083C33.125 27.2431 32.4453 27.4218 31.7499 27.4218C30.8179 27.4209 29.9243 27.0995 29.2652 26.5284C28.6062 25.9572 28.2354 25.1827 28.2343 24.375ZM16.9843 24.375C16.9843 23.7723 17.1905 23.1833 17.5768 22.6822C17.9631 22.1811 18.5122 21.7906 19.1546 21.56C19.797 21.3294 20.5038 21.2691 21.1858 21.3866C21.8678 21.5042 22.4942 21.7944 22.9859 22.2205C23.4775 22.6466 23.8124 23.1895 23.948 23.7805C24.0837 24.3716 24.014 24.9842 23.748 25.5409C23.4819 26.0977 23.0313 26.5735 22.4531 26.9083C21.875 27.2431 21.1953 27.4218 20.4999 27.4218C19.5679 27.4209 18.6743 27.0995 18.0152 26.5284C17.3562 25.9572 16.9854 25.1827 16.9843 24.375ZM5.73431 24.375C5.73431 23.7723 5.9405 23.1833 6.3268 22.6822C6.7131 22.1811 7.26217 21.7906 7.90457 21.56C8.54696 21.3294 9.25384 21.2691 9.9358 21.3866C10.6178 21.5042 11.2442 21.7944 11.7359 22.2205C12.2275 22.6466 12.5624 23.1895 12.698 23.7805C12.8337 24.3716 12.764 24.9842 12.498 25.5409C12.2319 26.0977 11.7813 26.5735 11.2031 26.9083C10.625 27.2431 9.94526 27.4218 9.24994 27.4218C8.31788 27.4209 7.42431 27.0995 6.76525 26.5284C6.10618 25.9572 5.73543 25.1827 5.73431 24.375ZM10.6175 37.3912C7.32157 37.5529 4.02176 37.1385 0.914391 36.1725L1.64494 33.0159C1.8009 32.339 2.12255 31.699 2.5882 31.139C3.05385 30.579 3.65266 30.1121 4.34423 29.7698C5.75516 29.0866 7.33508 28.7079 8.95051 28.6654C10.5659 28.623 12.1694 28.9182 13.6255 29.526C12.5443 30.3895 11.806 31.5272 11.5161 32.7764L10.6703 36.4406C10.6378 36.5815 10.6638 36.7278 10.7437 36.8536C10.8236 36.9795 10.9522 37.0769 11.1069 37.1286C11.3052 37.195 11.5056 37.2504 11.7053 37.3114C11.3434 37.3467 10.9808 37.3733 10.6175 37.3912ZM12.1644 36.1725L12.8928 33.0165C13.0488 32.3396 13.3704 31.6996 13.8361 31.1396C14.3017 30.5796 14.9005 30.1127 15.5921 29.7704C17.0914 29.0441 18.7803 28.6628 20.4978 28.6628C22.2154 28.6628 23.9043 29.0441 25.4035 29.7704C26.0951 30.1127 26.6939 30.5796 27.1596 31.1396C27.6252 31.6996 27.9469 32.3396 28.1028 33.0165L28.8313 36.1725C23.4438 37.8445 17.5538 37.8443 12.1665 36.1718L12.1644 36.1725ZM29.3115 37.312C29.5049 37.251 29.6989 37.1956 29.8909 37.1292C30.0461 37.0778 30.1753 36.9805 30.2556 36.8544C30.3359 36.7284 30.3622 36.5818 30.3296 36.4406L29.4859 32.774C29.196 31.5248 28.4577 30.387 27.3765 29.5236C28.8326 28.9157 30.436 28.6206 32.0515 28.663C33.6669 28.7054 35.2468 29.0842 36.6577 29.7673C37.3493 30.1097 37.9481 30.5766 38.4138 31.1366C38.8794 31.6965 39.2011 32.3366 39.357 33.0135L40.0855 36.1694C36.6374 37.2391 32.9575 37.6293 29.3136 37.3114L29.3115 37.312Z" fill="black"/>
<path d="M12.0624 17.6719C11.9555 17.6719 11.85 17.6508 11.754 17.6101C11.6579 17.5695 11.5738 17.5104 11.5081 17.4374C11.4423 17.3644 11.3966 17.2793 11.3745 17.1887C11.3524 17.0981 11.3544 17.0043 11.3803 16.9144L12.1327 14.3118C7.08496 13.3941 3.62488 10.5806 3.62488 7.3125C3.62488 3.28027 8.98691 0 15.578 0C22.1691 0 27.5311 3.28027 27.5311 7.3125C27.5311 11.1162 22.9172 14.2179 16.7628 14.5842L12.5018 17.5384C12.3771 17.6249 12.2221 17.6719 12.0624 17.6719ZM15.578 1.21875C9.76246 1.21875 5.03113 3.95241 5.03113 7.3125C5.03113 10.0845 8.42793 12.5732 13.1065 13.2295C13.2027 13.243 13.2946 13.2736 13.3763 13.3194C13.4581 13.3652 13.5281 13.4252 13.5817 13.4957C13.6353 13.5662 13.6714 13.6455 13.6878 13.7287C13.7041 13.8119 13.7004 13.8972 13.6768 13.9791L13.2493 15.4586L16.0575 13.5123C16.1717 13.433 16.3116 13.3866 16.4576 13.3794C21.8787 13.118 26.1249 10.4526 26.1249 7.3125C26.1249 3.95241 21.3935 1.21875 15.578 1.21875Z" fill="black"/>
<path d="M30.3437 18.8907C30.2074 18.8907 30.074 18.8564 29.9598 18.7919L25.7523 16.4154C24.3387 16.3312 22.9497 16.0521 21.6376 15.5885C21.4652 15.5267 21.3282 15.4082 21.2567 15.2589C21.1851 15.1095 21.185 14.9417 21.2562 14.7923C21.3274 14.6429 21.4642 14.5241 21.6365 14.4621C21.8088 14.4001 22.0024 14.4 22.1748 14.4617C23.4016 14.8941 24.7028 15.1468 26.0251 15.2094C26.1467 15.216 26.2642 15.2498 26.3661 15.3075L29.5133 17.0851L29.3544 15.5574C29.3392 15.4124 29.3844 15.2675 29.4818 15.149C29.5792 15.0304 29.7223 14.9459 29.8853 14.9108C33.524 14.1284 35.9687 12.0547 35.9687 9.75004C35.9687 7.05112 32.6134 4.71843 28.164 4.3266C28.0718 4.31861 27.9824 4.29491 27.9008 4.25685C27.8192 4.21879 27.7471 4.16713 27.6886 4.10484C27.6301 4.04255 27.5864 3.97085 27.56 3.89387C27.5336 3.81689 27.525 3.73615 27.5347 3.65629C27.543 3.57609 27.5698 3.49815 27.6134 3.42706C27.657 3.35598 27.7167 3.29319 27.7888 3.2424C27.8609 3.19162 27.944 3.15387 28.0332 3.13139C28.1224 3.10891 28.2159 3.10215 28.3082 3.11151C33.4761 3.56976 37.375 6.42346 37.375 9.75004C37.375 12.4922 34.7608 14.9376 30.8078 15.9559L31.0468 18.2264C31.0557 18.311 31.044 18.3961 31.0126 18.4765C30.9813 18.5569 30.9309 18.6307 30.8647 18.6932C30.7985 18.7558 30.718 18.8056 30.6283 18.8396C30.5385 18.8736 30.4416 18.891 30.3437 18.8907Z" fill="black"/>
</svg>
