<svg width="16" height="16" viewBox="0 0 16 16" fill="none" xmlns="http://www.w3.org/2000/svg">
<rect width="16" height="16" rx="4" fill="#59C09B"/>
<path d="M11.0311 4.72317C11.1831 4.57845 11.3854 4.49844 11.5953 4.50002C11.8052 4.50161 12.0063 4.58467 12.1561 4.73169C12.3059 4.8787 12.3927 5.07816 12.3983 5.28798C12.4038 5.4978 12.3276 5.70157 12.1858 5.8563L7.87995 11.2413C7.80591 11.3211 7.71655 11.3851 7.61721 11.4295C7.51787 11.4739 7.41059 11.4978 7.30179 11.4999C7.19299 11.5019 7.0849 11.4819 6.98398 11.4412C6.88306 11.4005 6.79139 11.3399 6.71445 11.2629L3.85898 8.40744C3.77946 8.33334 3.71568 8.24398 3.67145 8.1447C3.62721 8.04542 3.60342 7.93824 3.60151 7.82957C3.59959 7.72089 3.61958 7.61295 3.66029 7.51217C3.70099 7.41138 3.76158 7.31984 3.83844 7.24298C3.9153 7.16612 4.00685 7.10553 4.10763 7.06483C4.20841 7.02412 4.31636 7.00413 4.42503 7.00604C4.53371 7.00796 4.64088 7.03175 4.74016 7.07599C4.83945 7.12022 4.9288 7.184 5.0029 7.26352L7.26267 9.52221L11.0106 4.74692C11.0173 4.73861 11.0246 4.73068 11.0322 4.72317H11.0311Z" fill="white"/>
</svg>
