<svg width="22" height="23" viewBox="0 0 22 23" fill="none" xmlns="http://www.w3.org/2000/svg">
<path d="M14.5 10.8333V3.83331L11 0.333313L7.5 3.83331V6.16665H0.5V22.5H21.5V10.8333H14.5ZM5.16667 20.1666H2.83333V17.8333H5.16667V20.1666ZM5.16667 15.5H2.83333V13.1666H5.16667V15.5ZM5.16667 10.8333H2.83333V8.49998H5.16667V10.8333ZM12.1667 20.1666H9.83333V17.8333H12.1667V20.1666ZM12.1667 15.5H9.83333V13.1666H12.1667V15.5ZM12.1667 10.8333H9.83333V8.49998H12.1667V10.8333ZM12.1667 6.16665H9.83333V3.83331H12.1667V6.16665ZM19.1667 20.1666H16.8333V17.8333H19.1667V20.1666ZM19.1667 15.5H16.8333V13.1666H19.1667V15.5Z" fill="#59C09B"/>
</svg>
