<svg width="45" height="45" viewBox="0 0 45 45" fill="none" xmlns="http://www.w3.org/2000/svg">
<path d="M27.177 34.657C36.2053 30.9428 42.897 26.4072 42.1233 24.5265C41.3496 22.6458 33.4034 24.1321 24.3751 27.8463C15.3468 31.5605 8.65506 36.0961 9.42878 37.9769C10.2025 39.8576 18.1486 38.3712 27.177 34.657Z" fill="#BD851D"/>
<path d="M26.0858 31.9725C30.5004 30.1573 33.6285 27.5896 33.0725 26.2374C32.5166 24.8852 28.487 25.2606 24.0723 27.0757C19.6577 28.8909 16.5296 31.4586 17.0856 32.8108C17.6415 34.163 21.6711 33.7877 26.0858 31.9725Z" fill="#844F15"/>
<path d="M20.868 33.8062L20.2359 29.5664C20.1241 28.8183 19.1545 28.3394 18.0654 28.5026C16.9762 28.6657 16.1866 29.404 16.2984 30.1542L16.9319 34.3941C14.8556 35.2694 13.5323 36.9295 13.784 38.6065C14.1068 40.7707 16.9024 42.1432 20.0334 41.6742C23.1581 41.2073 25.432 39.0783 25.1114 36.9148C24.8596 35.2364 23.1089 34.0376 20.8645 33.8062" fill="#FBB041"/>
<path d="M16.0157 38.2711C15.7654 36.5927 17.0915 34.9326 19.1629 34.0587L18.5294 29.8188C18.4612 29.3548 18.7418 28.8942 19.2164 28.5736C18.8429 28.4637 18.4497 28.4387 18.0654 28.5005C16.9762 28.6636 16.1866 29.4019 16.2984 30.1521L16.9319 34.3919C14.8556 35.2673 13.5323 36.9274 13.784 38.6044C14.1068 40.7686 16.9024 42.1411 20.0334 41.6721C20.4068 41.6153 20.776 41.534 21.1387 41.4288C18.49 41.4583 16.3005 40.1688 16.0157 38.2711Z" fill="#E09734"/>
<path d="M24.3563 37.0779C24.4336 37.6024 24.3605 38.108 24.1748 38.5383C24.1277 38.6438 24.0743 38.7471 24.0131 38.842C23.7909 39.1676 23.1862 39.7336 23.0864 39.2716C23.0451 39.0725 22.9913 38.8762 22.9254 38.6838C22.8919 38.5896 22.8561 38.4963 22.8178 38.404C22.3875 37.0962 21.4446 37.286 20.6796 36.7819C20.3006 36.5534 20.5692 36.0373 20.7724 35.7919C20.8399 35.6984 20.9109 35.6147 20.9834 35.538C21.2766 35.2301 21.6077 35.0402 21.9783 35.0079C22.0875 34.9923 22.1978 34.9859 22.308 34.9889C23.298 35.0297 24.1791 35.898 24.3563 37.0779Z" fill="#F9C178"/>
<path d="M18.9794 4.78758C19.4878 6.02227 18.4493 7.62118 16.6619 8.35454C14.8703 9.09282 13.0106 8.68641 12.5022 7.45102C11.9939 6.21633 13.031 4.61743 14.8232 3.88196C16.6085 3.14719 18.471 3.55219 18.9794 4.78758Z" fill="#FBB041"/>
<path d="M17.9656 4.55696C18.0612 4.78829 18.0409 5.04774 17.9291 5.29665C17.8997 5.35977 17.8661 5.42085 17.8285 5.47946C17.6816 5.68688 17.2611 6.10102 17.1535 5.90485C17.0857 5.77367 16.9966 5.65464 16.8898 5.55258C16.4729 5.03227 15.7684 5.34516 15.1559 5.2861C14.8522 5.26852 15.0202 4.95774 15.1573 4.79251C15.203 4.73204 15.2502 4.67579 15.3036 4.62165C15.5 4.40376 15.7457 4.23598 16.0201 4.13227C16.1028 4.09978 16.1867 4.07069 16.2718 4.04508C17.0241 3.83063 17.7519 4.03594 17.9656 4.55696Z" fill="#F9C178"/>
<path d="M15.0188 5.80993C14.751 5.16024 14.8564 4.42196 15.2438 3.73219C15.1015 3.77648 14.961 3.82644 14.8227 3.88196C13.0311 4.61883 11.9961 6.21633 12.5017 7.45102C13.01 8.68571 14.8698 9.09211 16.6613 8.35454C17.3188 8.08524 17.8756 7.69712 18.2912 7.25415C16.7823 7.41587 15.4576 6.88219 15.0188 5.80993Z" fill="#E09734"/>
<path fill-rule="evenodd" clip-rule="evenodd" d="M35.2898 21.1289C32.5111 19.7852 30.5733 17.7159 29.0763 15.2234C27.663 12.863 26.524 10.3697 25.4271 7.86516C24.7626 6.35344 23.6517 5.79656 21.9213 5.91961C20.7332 6.00722 19.5563 6.20949 18.4071 6.52359C17.7469 6.76195 17.0909 7.00945 16.4271 7.26188C15.7169 7.57406 15.0209 7.88555 14.3262 8.20969C13.9711 8.37633 13.616 8.54438 13.2637 8.71383C12.3661 9.24536 11.5153 9.85223 10.7205 10.5279C9.40429 11.6564 9.00562 12.8334 9.59765 14.3768C10.5799 16.927 11.5249 19.4984 12.1802 22.1745C12.8714 25.001 12.948 27.8346 11.9194 30.7441C11.3906 32.2397 10.7522 33.6987 10.1278 35.1633C9.72702 36.1005 9.34382 37.0406 9.41624 38.0454C9.54984 38.122 9.64476 38.0827 9.71226 37.9462C10.5771 36.2166 12.1655 35.088 13.7405 33.9778C16.4531 32.0653 19.4076 30.5402 22.4255 29.1277C23.118 28.8021 23.8191 28.4941 24.5264 28.182C25.2485 27.9042 25.965 27.6321 26.6864 27.3762C29.828 26.254 32.9976 25.2598 36.2714 24.712C38.1705 24.3921 40.0943 24.0785 41.9245 24.6973C42.0701 24.7479 42.1636 24.7099 42.203 24.5623C41.5498 23.798 40.6125 23.3986 39.671 23.014C38.1959 22.4114 36.7165 21.8222 35.2891 21.1324" fill="#FBB041"/>
<path fill-rule="evenodd" clip-rule="evenodd" d="M39.6634 22.9992C38.1882 22.398 36.7088 21.8074 35.2815 21.1191C32.5028 19.7754 30.5649 17.7054 29.0666 15.2121C27.6533 12.8517 26.5142 10.3584 25.4181 7.85532C24.7536 6.34219 23.6427 5.78672 21.9116 5.91047C20.7239 5.99693 19.5474 6.19874 18.3988 6.51305C17.7392 6.75211 17.0832 6.99961 16.4188 7.25274C16.0229 7.42641 15.6306 7.60782 15.2368 7.7843C15.4885 7.69008 15.7424 7.59305 15.9976 7.50024C17.1514 7.18946 18.3179 6.98274 19.5118 6.89625C21.2415 6.77391 22.3524 7.33079 23.0169 8.84461C24.1152 11.3484 25.2528 13.841 26.6654 16.2C28.1638 18.6961 30.1016 20.7633 32.8803 22.107C34.3077 22.7967 35.7878 23.3859 37.2622 23.9871C37.5878 24.1193 37.9091 24.2613 38.2213 24.4118C39.4686 24.2768 40.7131 24.2782 41.9169 24.6846C42.061 24.7324 42.1553 24.6952 42.1953 24.5489C41.5421 23.7811 40.6049 23.3824 39.6634 22.9992Z" fill="#F9C178"/>
<path fill-rule="evenodd" clip-rule="evenodd" d="M15.0821 32.3037C15.7072 30.8377 16.3449 29.378 16.8736 27.8838C17.9023 24.9743 17.8257 22.14 17.1331 19.3141C16.4792 16.6416 15.5328 14.0716 14.5519 11.5165C13.9599 9.97383 14.3593 8.79609 15.6762 7.66617C15.7571 7.59516 15.8429 7.52906 15.9265 7.46156C15.3872 7.70344 14.8479 7.93758 14.3178 8.18789C13.9613 8.35453 13.6062 8.52258 13.2539 8.69133C12.3567 9.22224 11.5064 9.82866 10.7122 10.504C9.3945 11.6325 8.99582 12.8116 9.58926 14.3529C10.5708 16.9052 11.5165 19.478 12.1711 22.1505C12.8637 24.9771 12.9404 27.8107 11.9103 30.7188C11.3815 32.2151 10.7445 33.6734 10.1201 35.1408C9.71934 36.0766 9.33614 37.0167 9.40856 38.0201C9.54215 38.0981 9.63496 38.0573 9.70317 37.9216C10.5694 36.1927 12.1564 35.0648 13.7314 33.9532C14.0478 33.7324 14.3691 33.5138 14.6918 33.3C14.8079 32.9653 14.9407 32.632 15.0821 32.3016" fill="#E09734"/>
<path d="M43.7133 19.3732C43.4687 19.0181 43.2261 18.6631 42.9842 18.315C42.9469 18.2588 42.9329 18.2109 42.9062 18.1603C42.8738 18.1055 42.838 18.0499 42.8148 17.9881C42.7768 17.8953 42.7529 17.7975 42.7437 17.6977C42.7423 17.6787 42.7318 17.6611 42.729 17.6386C42.4576 14.0667 40.498 10.4941 37.3269 7.98329C35.6232 6.63399 35.2569 7.09665 33.9969 5.26641C33.4829 4.51829 33.8098 3.88266 34.43 4.12032C40.1176 6.28876 44.9389 13.2891 44.9354 19.3746C44.9361 20.0391 44.2252 20.1185 43.7133 19.3732Z" fill="#59C09B"/>
<path d="M40.2258 20.0004L39.6274 19.1327C39.5965 19.0856 39.5845 19.0519 39.5606 19.0062C39.536 18.9605 39.5051 18.9134 39.4847 18.8634C39.4555 18.7873 39.4366 18.7076 39.4284 18.6265C39.427 18.6103 39.4193 18.5942 39.4165 18.578C39.1957 15.6382 37.5806 12.6977 34.9699 10.6299C33.57 9.52314 33.269 9.89931 32.2333 8.39603C31.8086 7.77868 32.0765 7.25556 32.5884 7.45032C37.2698 9.23767 41.2347 14.9942 41.2333 20.0053C41.234 20.5531 40.6497 20.6149 40.2258 20.0004ZM5.61654 33.5327L5.3613 32.2742C5.34794 32.2081 5.32333 32.1638 5.30505 32.1096C5.28888 32.0492 5.27271 31.9845 5.24458 31.924C5.20344 31.8329 5.14946 31.7481 5.08427 31.6723C5.07232 31.6575 5.06529 31.6378 5.05333 31.6209C2.67115 28.9449 1.46107 25.0545 1.85622 21.0319C2.06857 18.8691 2.65638 18.926 2.21412 16.7485C2.0313 15.8583 1.34927 15.6523 1.08841 16.264C-1.30151 21.863 0.385287 30.1915 4.76927 34.4166C5.2481 34.8792 5.79583 34.4222 5.61654 33.5349" fill="#59C09B"/>
<path d="M8.4867 31.4613C8.41568 31.1196 8.34537 30.7688 8.27717 30.4298C8.26381 30.3736 8.24764 30.3413 8.23006 30.2941C8.21529 30.2442 8.20334 30.1887 8.18154 30.1395C8.14721 30.0654 8.10272 29.9966 8.04935 29.9348C8.03881 29.9208 8.03318 29.9053 8.02404 29.8906C6.06162 27.6912 5.0681 24.4856 5.39224 21.1739C5.56873 19.3971 6.04826 19.4414 5.68545 17.6513C5.53709 16.9179 4.97389 16.7463 4.75873 17.2505C2.79279 21.8595 4.18076 28.7114 7.78779 32.1898C8.18365 32.5695 8.63435 32.1919 8.4867 31.4599" fill="#59C09B"/>
</svg>
