<svg width="15" height="16" viewBox="0 0 15 16" fill="none" xmlns="http://www.w3.org/2000/svg">
<g opacity="0.8">
<ellipse cx="7.17391" cy="8" rx="7.17391" ry="7.5" fill="white"/>
<path d="M8.0625 7.0625C7.91411 7.0254 7.76573 6.97363 7.62315 6.90717C7.19276 6.70657 6.65625 6.41234 6.65625 5.9375C6.65625 5.75 6.75 5.46875 6.9375 5.375C7.16462 5.22359 7.39173 5.07218 7.61885 5.06887C7.72817 5.06728 7.8373 5.09107 7.94609 5.1019C8.11968 5.11918 8.28273 5.16331 8.43219 5.22815C8.823 5.39772 9.34936 5.40919 9.60497 5.06838C9.79577 4.81397 9.7723 4.45447 9.51801 4.26351C9.37659 4.15731 9.23517 4.06303 9.09375 3.96875C8.97889 3.89218 8.8484 3.83124 8.70866 3.78594C8.36389 3.67417 8.0625 3.39369 8.0625 3.03125V2.9375C8.0625 2.62684 7.81066 2.375 7.5 2.375C7.18934 2.375 6.9375 2.62684 6.9375 2.9375V3.09623C6.9375 3.44003 6.68865 3.72901 6.38162 3.88369C6.10914 4.02096 5.85017 4.21233 5.625 4.4375C5.39682 4.72273 5.20334 5.04268 5.10795 5.37621C4.98678 5.79987 5.03227 6.26093 5.15006 6.68554C5.23965 7.00843 5.39796 7.30421 5.625 7.53125C5.98741 7.89366 6.46189 8.14399 6.91847 8.36889C7.18072 8.49807 7.43656 8.59654 7.70047 8.72228C8.06774 8.89726 8.4458 9.17146 8.51381 9.57256C8.52544 9.64116 8.53125 9.7112 8.53125 9.78125C8.53125 9.81802 8.52965 9.8548 8.52644 9.89157C8.48069 10.4164 8.07308 10.8855 7.55447 10.9781C7.46951 10.9933 7.38766 11 7.3125 11C6.96155 11 6.52849 10.9179 6.24385 10.6768C6.20499 10.6439 6.16595 10.6111 6.12454 10.5815C6.0863 10.5541 6.04819 10.5251 6.01044 10.4947C5.67516 10.2251 5.15712 10.1834 4.86768 10.5018C4.65428 10.7365 4.63291 11.0945 4.85083 11.325C5.02651 11.5109 5.21559 11.6773 5.4375 11.8438C5.73847 12.0243 6.07809 12.2049 6.43154 12.3111C6.75387 12.4078 7.03125 12.6791 7.03125 13.0156V13.1094C7.03125 13.3941 7.2621 13.625 7.54688 13.625C7.83165 13.625 8.0625 13.3941 8.0625 13.1094V12.8637C8.0625 12.4915 8.33905 12.1852 8.67704 12.0294C8.97589 11.8917 9.23979 11.6977 9.46875 11.4688C9.9375 11 10.2188 10.25 10.2188 9.59375C10.2188 9.03125 10.0312 8.375 9.5625 8C9.09375 7.53125 8.625 7.25 8.0625 7.0625ZM7.5 0.5C3.375 0.5 0 3.875 0 8C0 12.125 3.375 15.5 7.5 15.5C11.625 15.5 15 12.125 15 8C15 3.875 11.625 0.5 7.5 0.5ZM7.5 14.4688C3.9375 14.4688 1.03125 11.5625 1.03125 8C1.03125 4.4375 3.9375 1.53125 7.5 1.53125C11.0625 1.53125 13.9688 4.4375 13.9688 8C13.9688 11.5625 11.0625 14.4688 7.5 14.4688Z" fill="#59C09B"/>
</g>
</svg>
