<svg width="22" height="21" viewBox="0 0 22 21" fill="none" xmlns="http://www.w3.org/2000/svg">
<rect x="0.86499" width="21" height="21" rx="10.5" fill="#59C09B" fill-opacity="0.5"/>
<path d="M4.43112 8.375V7.439H6.30312V14H5.26812V8.375H4.43112ZM7.71261 10.634C7.71261 9.596 7.88661 8.786 8.23461 8.204C8.58861 7.616 9.19461 7.322 10.0526 7.322C10.9106 7.322 11.5136 7.616 11.8616 8.204C12.2156 8.786 12.3926 9.596 12.3926 10.634C12.3926 11.684 12.2156 12.506 11.8616 13.1C11.5136 13.688 10.9106 13.982 10.0526 13.982C9.19461 13.982 8.58861 13.688 8.23461 13.1C7.88661 12.506 7.71261 11.684 7.71261 10.634ZM11.3846 10.634C11.3846 10.148 11.3516 9.737 11.2856 9.401C11.2256 9.065 11.0996 8.792 10.9076 8.582C10.7156 8.366 10.4306 8.258 10.0526 8.258C9.67461 8.258 9.38961 8.366 9.19761 8.582C9.00561 8.792 8.87661 9.065 8.81061 9.401C8.75061 9.737 8.72061 10.148 8.72061 10.634C8.72061 11.138 8.75061 11.561 8.81061 11.903C8.87061 12.245 8.99661 12.521 9.18861 12.731C9.38661 12.941 9.67461 13.046 10.0526 13.046C10.4306 13.046 10.7156 12.941 10.9076 12.731C11.1056 12.521 11.2346 12.245 11.2946 11.903C11.3546 11.561 11.3846 11.138 11.3846 10.634ZM13.4782 10.634C13.4782 9.596 13.6522 8.786 14.0002 8.204C14.3542 7.616 14.9602 7.322 15.8182 7.322C16.6762 7.322 17.2792 7.616 17.6272 8.204C17.9812 8.786 18.1582 9.596 18.1582 10.634C18.1582 11.684 17.9812 12.506 17.6272 13.1C17.2792 13.688 16.6762 13.982 15.8182 13.982C14.9602 13.982 14.3542 13.688 14.0002 13.1C13.6522 12.506 13.4782 11.684 13.4782 10.634ZM17.1502 10.634C17.1502 10.148 17.1172 9.737 17.0512 9.401C16.9912 9.065 16.8652 8.792 16.6732 8.582C16.4812 8.366 16.1962 8.258 15.8182 8.258C15.4402 8.258 15.1552 8.366 14.9632 8.582C14.7712 8.792 14.6422 9.065 14.5762 9.401C14.5162 9.737 14.4862 10.148 14.4862 10.634C14.4862 11.138 14.5162 11.561 14.5762 11.903C14.6362 12.245 14.7622 12.521 14.9542 12.731C15.1522 12.941 15.4402 13.046 15.8182 13.046C16.1962 13.046 16.4812 12.941 16.6732 12.731C16.8712 12.521 17.0002 12.245 17.0602 11.903C17.1202 11.561 17.1502 11.138 17.1502 10.634Z" fill="black"/>
</svg>
