<svg width="24" height="26" viewBox="0 0 24 26" fill="none" xmlns="http://www.w3.org/2000/svg">
<path d="M7.33329 11.9167L6.66663 14.1555H7.99996L7.33329 11.9167Z" fill="#59C09B"/>
<path d="M21.7 2.16669H11.0333V5.7778H13.7V7.22224H5.03333C3.89999 7.22224 3.03333 8.16113 3.03333 9.38891V17.3334C3.03333 18.5611 3.89999 19.5 5.03333 19.5H5.69999V23.1834L9.89999 19.5H14.3667V14.4445H21.7C22.8333 14.4445 23.7 13.5056 23.7 12.2778V4.33335C23.7 3.10558 22.8333 2.16669 21.7 2.16669ZM10.2333 16.5389L9.89999 15.3834H7.83333L7.43332 16.5389H5.83333L8.03333 10.1111H9.63333L11.8333 16.5389H10.2333ZM20.3667 10.8334V12.2778C19.5 12.2778 18.5667 11.9889 17.7667 11.5556C16.9667 11.9889 16.0333 12.2056 15.1 12.2778L15.0333 10.8334C15.5 10.8334 15.9667 10.7611 16.4333 10.6167C15.8333 9.96669 15.4333 9.17224 15.2333 8.30558H16.6333C16.8333 8.95558 17.2333 9.46113 17.7 9.89446C18.4333 9.24447 18.9 8.30558 18.9667 7.22224H14.9667V5.7778H16.9667V4.33335H18.3V5.7778H20.5L20.5667 6.50002C20.6333 8.01669 20.1 9.53335 19.1 10.6167C19.5667 10.7611 19.9667 10.8334 20.3667 10.8334Z" fill="#59C09B"/>
</svg>
