<svg width="339" height="223" viewBox="0 0 339 223" fill="none" xmlns="http://www.w3.org/2000/svg">
<g clip-path="url(#clip0_3226_526)">
<path d="M85.3045 52.5231C32.1556 58.8732 7.80457 93.5073 7.10898 121.571C5.944 168.594 54.4075 197.998 96.1877 209.987C138.321 222.075 184.498 222.4 226.98 211.665C263.772 202.367 316.287 181.545 321.885 140.049C324.512 120.573 314.967 100.863 301.04 87.1048C263.555 50.073 198.353 37.8774 146.808 43.5273C145.459 27.9231 152.487 9.32933 165.643 0C133.234 3.26032 99.6989 24.5757 85.3045 52.5231Z" fill="url(#paint0_linear_3226_526)"/>
<path d="M0 161.184C0 161.184 0.262487 161.512 0.755035 162.128C1.24758 162.742 1.99721 163.623 2.94603 164.739C3.90179 165.851 5.08761 167.177 6.45794 168.681C7.8306 170.184 9.42404 171.839 11.1819 173.618C12.9267 175.407 14.8876 177.279 16.9659 179.242C19.072 181.183 21.2985 183.214 23.6832 185.23C24.2692 185.743 24.876 186.245 25.489 186.748C26.0981 187.254 26.7111 187.764 27.3287 188.277C27.9579 188.777 28.591 189.279 29.2271 189.784C29.8664 190.285 30.4871 190.814 31.1464 191.302C32.4518 192.295 33.7558 193.309 35.1022 194.281C35.7708 194.772 36.4409 195.265 37.1118 195.758L39.1646 197.187C39.8509 197.662 40.5187 198.16 41.215 198.62C41.9091 199.082 42.6031 199.544 43.2956 200.004C44.6714 200.939 46.0819 201.812 47.4676 202.701C48.1578 203.149 48.8549 203.581 49.5606 203.993C50.2585 204.417 50.9533 204.839 51.6435 205.259C51.9886 205.469 52.3329 205.679 52.6764 205.887C53.0262 206.085 53.3743 206.282 53.7218 206.479C54.4143 206.878 55.1014 207.273 55.783 207.665C57.131 208.478 58.5237 209.162 59.8446 209.909C60.5132 210.269 61.1617 210.649 61.8256 210.981C62.4873 211.32 63.1404 211.655 63.7843 211.985C65.0681 212.657 66.3204 213.308 67.5571 213.891C68.7869 214.491 69.9743 215.072 71.1154 215.629C72.2711 216.162 73.3782 216.673 74.4312 217.158C74.9569 217.407 75.4688 217.65 75.9667 217.885C76.4716 218.104 76.9626 218.318 77.4382 218.524C78.3886 218.94 79.2864 219.314 80.1055 219.692C80.517 219.877 80.9107 220.055 81.2883 220.224C81.6704 220.382 82.0348 220.531 82.3807 220.674C83.7672 221.235 84.8465 221.72 85.5884 222.033C86.3272 222.358 86.7217 222.532 86.7217 222.532C86.7217 222.532 86.2971 222.452 85.5004 222.303C84.7075 222.141 83.5341 221.929 82.0549 221.604C80.5633 221.314 78.7946 220.83 76.7526 220.293C74.6983 219.787 72.4455 219.033 69.9581 218.264C67.5154 217.394 64.8404 216.49 62.1013 215.33C60.7193 214.775 59.3073 214.186 57.8922 213.527C56.4717 212.88 55.0087 212.233 53.5674 211.491C52.1221 210.756 50.629 210.046 49.18 209.223C47.7247 208.41 46.22 207.633 44.7795 206.734C43.3288 205.85 41.8342 205.003 40.4121 204.04C38.9715 203.104 37.524 202.165 36.122 201.165L34.0167 199.671C33.3289 199.156 32.6418 198.641 31.9562 198.128C30.5681 197.121 29.2696 196.017 27.9463 194.966C25.3354 192.822 22.8502 190.618 20.5473 188.391C19.9729 187.833 19.4032 187.28 18.8396 186.732C18.283 186.177 17.7456 185.614 17.2114 185.061C16.1337 183.963 15.127 182.846 14.1426 181.766C12.2095 179.572 10.4338 177.461 8.8983 175.437C8.11856 174.435 7.40753 173.447 6.73047 172.512C6.07811 171.558 5.44583 170.666 4.88611 169.803C3.73349 168.103 2.83486 166.554 2.10067 165.282C1.3603 164.014 0.86003 162.972 0.504901 162.274C0.159808 161.57 0 161.184 0 161.184Z" fill="url(#paint1_linear_3226_526)"/>
<path d="M162.881 9.31976C156.245 17.3599 152.524 27.7984 151.99 37.924C153.317 37.8834 154.645 37.859 155.975 37.8413C155.812 28.1762 157.958 17.7635 162.881 9.31976Z" fill="url(#paint2_linear_3226_526)"/>
<path d="M313.069 74.8029C282.172 48.8045 236.764 38.0811 194.02 38.3343C203.314 39.042 212.555 40.2736 221.656 42.0256C247.458 46.9921 272.886 56.2594 293.938 71.6171C304.95 79.6506 314.738 89.3356 321.258 101.108C328.138 113.528 331.353 127.479 328.863 141.441C326.123 156.806 316.988 169.629 305.295 179.976C323.732 166.592 337.829 149.243 338.937 127.333C339.953 107.201 328.498 87.7866 313.069 74.8029Z" fill="url(#paint3_linear_3226_526)"/>
<path d="M26.2563 143.497C25.5993 140.592 26.5296 138.138 28.9252 136.134C31.8975 139.065 33.4168 140.482 36.5157 143.219C35.7761 143.962 35.4572 144.698 35.5638 145.43C35.6703 146.16 36.1081 146.857 36.8724 147.507C37.5602 148.092 38.2759 148.443 39.0101 148.559C39.7443 148.676 40.3642 148.502 40.8714 148.044C41.5261 147.455 41.6643 146.695 41.3022 145.769C40.9394 144.842 40.1643 143.499 39.0564 141.727C37.8775 139.843 37.053 138.213 36.5388 136.9C36.0247 135.586 35.8865 134.214 36.1258 132.8C36.3651 131.387 37.2792 130.113 38.8387 128.966C40.4198 127.803 42.146 127.175 43.9935 127.04C45.8401 126.906 47.6775 127.217 49.5227 127.951C51.367 128.686 53.0963 129.76 54.7516 131.177C57.4297 133.472 59.0131 135.755 59.528 138.185C60.043 140.615 59.3837 142.921 57.4459 145.098C54.3424 142.803 52.8161 141.608 49.8199 139.125C50.4746 138.498 50.7571 137.854 50.6722 137.196C50.5873 136.538 50.2159 135.929 49.5566 135.362C49.0564 134.932 48.5067 134.698 47.9053 134.659C47.3031 134.62 46.738 134.819 46.2107 135.258C45.7707 135.624 45.5699 136.098 45.6116 136.678C45.6533 137.258 45.8293 137.88 46.1428 138.539C46.4554 139.196 46.9681 140.138 47.7092 141.322C48.8093 143.081 49.7041 144.596 50.3179 145.873C50.9316 147.151 51.2335 148.486 51.2257 149.894C51.218 151.301 50.6182 152.632 49.3945 153.879C48.1508 155.146 46.6199 155.98 44.7763 156.345C42.9327 156.709 40.9023 156.56 38.7013 155.863C36.4995 155.166 34.2969 153.912 32.1491 152.091C28.8843 149.328 26.9125 146.401 26.2563 143.497Z" fill="black"/>
<path d="M56.2771 167.344C54.7323 164.858 54.0838 162.281 54.3077 159.67C54.5316 157.059 55.6803 154.696 57.6583 152.549C59.6354 150.403 62.0263 148.912 64.7593 147.996C67.4922 147.081 70.2568 146.777 73.0778 147.047C75.898 147.317 78.468 148.122 80.8798 149.483C83.3156 150.858 85.1916 152.563 86.575 154.669C87.9585 156.775 88.7089 159.067 88.8108 161.59C88.9135 164.112 88.2943 166.608 86.8576 169.059C85.4201 171.512 83.4537 173.409 80.8775 174.687C78.3021 175.964 75.4108 176.539 72.2301 176.354C69.0486 176.169 65.9443 175.246 63.0176 173.594C60.0917 171.941 57.8212 169.83 56.2771 167.344ZM73.7186 168.611C75.7135 168.146 77.32 166.953 78.5738 165.078C79.8584 163.157 80.2784 161.344 79.8886 159.639C79.4987 157.936 78.3561 156.571 76.4322 155.485C74.4821 154.384 72.5667 154.021 70.6251 154.408C68.6827 154.796 66.9549 155.871 65.475 157.681C64.012 159.47 63.4252 161.246 63.7672 163.015C64.1093 164.784 65.3661 166.312 67.5139 167.524C69.633 168.721 71.7229 169.077 73.7186 168.611Z" fill="black"/>
<path d="M96.6174 165.077C98.8277 163.595 101.247 162.712 103.888 162.384C106.529 162.055 109.17 162.336 111.907 163.215C115.381 164.33 117.978 166.04 119.822 168.475C121.666 170.91 122.543 173.739 122.363 177.015C118.703 176.164 116.881 175.691 113.262 174.651C113.093 173.487 112.642 172.503 111.909 171.695C111.175 170.885 110.206 170.291 108.987 169.899C107.103 169.292 105.352 169.38 103.68 170.177C102.007 170.975 100.684 172.349 99.751 174.334C98.8061 176.343 98.6409 178.158 99.3071 179.777C99.9726 181.396 101.359 182.564 103.433 183.231C104.774 183.663 106.067 183.767 107.293 183.547C108.518 183.328 109.607 182.792 110.553 181.948C114.363 183.042 116.281 183.54 120.135 184.437C118.411 187.355 115.845 189.388 112.378 190.428C108.912 191.47 104.984 191.35 100.775 189.999C97.4597 188.934 94.79 187.342 92.8376 185.307C90.8851 183.272 89.7873 180.983 89.5256 178.495C89.2647 176.008 89.8622 173.514 91.231 171.003C92.5867 168.518 94.4071 166.559 96.6174 165.077Z" fill="black"/>
<path d="M207.855 166.434C210.638 175.438 213.42 184.441 216.202 193.445C212.401 194.38 210.489 194.802 206.651 195.557C204.415 186.432 200.288 172.237 197.803 163.381C201.753 168.096 207.626 166.24 207.855 166.434Z" fill="black"/>
<path d="M163.07 195.171C158.222 195.135 155.798 195.045 150.961 194.722C150.068 196.497 149.612 197.383 148.678 199.148C144.579 198.838 142.533 198.632 138.452 198.12C143.993 189.412 148.975 180.578 153.51 171.354C157.237 171.591 159.104 171.66 162.837 171.697C166.463 181.216 170.568 190.386 175.24 199.479C171.116 199.688 169.051 199.742 164.922 199.75C164.159 197.922 163.789 197.006 163.07 195.171ZM160.84 189.174C159.511 185.52 158.889 183.687 157.728 180.013C156.24 183.589 155.454 185.37 153.8 188.914C156.615 189.068 158.023 189.121 160.84 189.174Z" fill="black"/>
<path d="M189.213 192.278C193.394 191.764 195.479 191.453 199.632 190.721C200.164 193.061 200.43 194.231 200.962 196.571C194.166 197.77 187.306 198.631 180.417 199.152C179.51 189.838 178.603 180.524 177.695 171.21C180.925 170.966 182.538 170.806 185.754 170.411C186.907 177.701 188.059 184.989 189.213 192.278Z" fill="black"/>
<path d="M139.438 170.814C137.278 179.997 135.118 189.181 132.958 198.364C129.161 197.376 127.277 196.839 123.544 195.677C126.243 186.647 128.943 177.618 131.642 168.588C134.734 169.551 136.294 169.996 139.438 170.814Z" fill="black"/>
<path d="M231.081 182.103C236.418 180.222 239.059 179.183 244.267 176.912C245.552 179.176 246.195 180.307 247.479 182.571C239.508 185.887 231.526 188.784 223.26 191.358C222.407 189.109 221.981 187.985 221.129 185.736C223.659 179.548 225.767 173.201 227.406 166.744C222.669 168.507 220.272 169.301 215.437 170.717C214.533 168.332 214.082 167.141 213.178 164.755C220.02 162.75 226.725 160.318 233.236 157.478C234.441 159.6 235.043 160.661 236.246 162.782C234.99 169.325 233.253 175.783 231.081 182.103Z" fill="black"/>
<path d="M245.958 151.274C249.223 155.878 252.487 160.482 255.752 165.085C256.663 166.369 257.733 167.161 258.981 167.445C260.228 167.729 261.626 167.44 263.144 166.564C264.661 165.688 265.531 164.661 265.745 163.516C265.958 162.373 265.564 161.197 264.583 159.986C261.003 155.565 257.421 151.144 253.841 146.723C256.663 144.988 258.057 144.083 260.804 142.197C264.664 146.437 268.524 150.677 272.384 154.916C274.215 156.927 275.238 159.018 275.386 161.206C275.533 163.395 274.91 165.517 273.507 167.527C272.105 169.537 270.117 171.303 267.585 172.76C265.052 174.218 262.48 175.078 259.937 175.348C257.391 175.618 255.041 175.229 252.904 174.212C250.768 173.196 249.014 171.526 247.589 169.248C244.617 164.496 241.644 159.742 238.671 154.99C241.617 153.578 243.076 152.835 245.958 151.274Z" fill="black"/>
<path d="M288.023 156.178C284.705 156.667 281.912 155.806 279.604 153.729C282.888 151.312 284.504 150.055 287.677 147.442C288.536 148.084 289.387 148.367 290.234 148.284C291.08 148.201 291.892 147.833 292.655 147.181C293.341 146.594 293.758 145.979 293.903 145.346C294.047 144.712 293.854 144.175 293.325 143.736C292.645 143.169 291.758 143.048 290.674 143.356C289.588 143.664 288.013 144.324 285.959 145.25C283.771 146.236 281.903 146.906 280.4 147.313C278.897 147.721 277.332 147.803 275.72 147.562C274.109 147.322 272.649 146.514 271.326 145.166C269.983 143.8 269.245 142.328 269.07 140.764C268.896 139.201 269.232 137.655 270.068 136.102C270.905 134.548 272.145 133.089 273.806 131.68C276.492 129.4 279.208 128.015 282.089 127.546C284.969 127.077 287.689 127.621 290.215 129.296C287.397 132.063 285.956 133.399 283.017 135.976C282.294 135.409 281.545 135.162 280.777 135.233C280.008 135.303 279.295 135.618 278.632 136.179C278.13 136.605 277.855 137.073 277.808 137.587C277.76 138.102 277.988 138.588 278.496 139.045C278.919 139.426 279.465 139.605 280.138 139.575C280.811 139.547 281.532 139.403 282.299 139.14C283.066 138.877 284.163 138.444 285.559 137.807C287.628 136.863 289.427 136.08 290.945 135.537C292.464 134.993 294.053 134.715 295.72 134.704C297.388 134.693 298.952 135.201 300.395 136.261C301.861 137.337 302.803 138.676 303.183 140.292C303.562 141.907 303.331 143.69 302.465 145.611C301.599 147.533 300.09 149.444 297.951 151.28C294.702 154.068 291.34 155.69 288.023 156.178Z" fill="black"/>
<path d="M116.521 119.751C116.515 118.844 116.568 117.967 116.681 117.177C117.345 112.543 118.082 107.79 119.798 103.524C120.58 101.581 121.581 99.7578 122.86 98.2339C123.507 97.4628 124.22 96.772 124.985 96.1765C125.416 95.8415 126.966 94.4674 127.477 94.643C134.667 97.1189 138.188 96.6148 141.136 96.6178C142.715 96.6193 144.766 96.6835 146.452 95.9263C147.29 99.8471 148.97 103.264 151.284 106.049C143.489 109.835 139.248 124.359 137.786 133.073C137.698 133.599 128.215 131.441 127.345 131.159C125.988 130.718 124.558 130.741 123.169 130.373C120.916 129.776 118.496 128.701 117.51 125.978C116.876 124.232 116.534 121.906 116.521 119.751Z" fill="black"/>
<path d="M158.743 103.856C161.548 107.351 166.17 108.539 169.498 108.484C172.923 108.426 177.499 107.084 180.172 103.372C189.75 107.892 197.166 122.694 199.266 135.813C199.925 139.723 197.832 143.048 194.821 144.362C193.466 144.934 191.918 145.454 190.237 145.922C190.068 145.969 189.959 148.017 189.959 148.287C189.959 149.125 190.384 150.022 190.731 150.778C191.52 152.499 192.625 154.062 193.604 155.684C194.355 156.929 195.165 158.15 195.783 159.431C196.162 160.219 197.26 161.795 195.766 162.167C194.647 162.446 193.172 161.59 192.214 161.122C189.731 159.912 187.178 158.821 184.768 157.479C180.608 155.162 176.982 152.041 172.24 150.808C169.908 150.201 167.548 149.8 165.219 149.162C160.507 147.871 155.77 146.844 150.957 146.63C148.855 146.537 146.904 145.92 144.912 145.07C142.347 143.974 140.437 141.223 140.765 137.803C142.28 124.243 149.144 108.824 158.743 103.856Z" fill="black"/>
<path d="M150.863 79.0159C151.748 80.7914 156.428 78.0868 160.325 75.6833C164.153 73.3225 171.267 68.3294 175.182 72.7594C175.388 72.9919 176.048 74.3165 176.377 74.2715C177.052 74.1793 177.663 74.2022 178.079 74.3741C178.079 74.3741 186.112 76.1105 184.652 89.5666C184.449 89.537 184.172 89.4293 183.851 89.2751C183.924 97.4355 178.044 104.212 170.427 104.549C162.605 104.894 155.933 98.3203 155.525 89.8669C155.46 88.5319 155.573 87.2368 155.81 85.9897C155.828 85.5026 155.867 85.0141 155.944 84.5285C152.942 83.2112 152.155 82.4555 150.863 79.0159Z" fill="black"/>
<path d="M151.283 87.9763C149.02 90.7525 145.482 94.4179 136.071 94.2239C135.875 94.4762 133.613 94.08 133.246 94.0386C132.397 93.942 131.554 93.8076 130.72 93.6291C129.272 93.3184 127.853 92.8763 126.504 92.2808C124.269 91.2941 122.13 89.937 120.548 88.1128C119.839 87.2951 119.451 86.4214 118.96 85.5004C118.857 85.3063 117.863 82.5515 118.21 82.6179C118.384 82.6511 118.628 82.5522 118.799 82.5869C118.307 81.1885 117.84 79.5222 117.761 78.1783C118.273 79.0063 118.689 80.2764 119.354 80.9095C119.2 80.393 119.065 79.8727 119.11 79.2749C119.681 79.6609 120.257 79.9767 120.929 80.1657C121.168 80.2328 121.422 80.314 121.67 80.3391C122.281 80.4003 122.953 80.0225 123.487 79.7723C124.03 79.5185 124.23 79.0351 124.466 78.5259C124.713 77.9909 125.029 77.4655 125.214 76.9127C125.624 75.6847 125.635 74.4516 125.635 73.169C125.635 71.1359 125.957 68.8069 127.287 67.1723C127.696 66.6691 128.273 66.2432 128.804 65.8617C129.272 65.5245 129.766 65.1702 130.257 64.836C132.729 63.1527 136.165 62.6981 139.101 63.2508C140.559 63.5253 142.008 64.0729 143.227 64.8935C143.666 65.1887 143.996 65.5665 144.415 65.8654C144.934 66.2351 145.553 66.5406 146.133 66.81C145.77 66.641 145.466 66.8609 145.533 67.2026C145.612 67.6026 146.105 67.7738 146.386 68.0026C147.131 68.6106 147.621 69.7375 148.042 70.567C148.993 72.4429 149.634 74.4538 150.076 76.4913C150.114 76.667 150.179 76.8795 150.258 77.1098C148.363 77.295 146.921 76.8588 146.446 75.8692C147.964 80.0616 149.313 83.6474 152.837 85.2554L151.283 87.9763Z" fill="black"/>
<path d="M223.207 119.91C223.179 119.003 223.094 118.128 222.951 117.341C222.114 112.73 221.2 108.003 219.325 103.796C218.126 101.108 216.369 98.6501 214.02 96.7639C213.336 96.2141 212.625 95.6488 211.825 95.2585C211.191 94.9492 210.709 94.3928 209.933 94.5699C209.241 94.7279 208.796 95.4592 208.255 95.8459C206.877 96.8311 205.539 97.7535 203.813 98.0487C201.774 98.397 199.628 98.2251 197.619 97.7889C196.813 97.614 196.016 97.3602 195.266 97.0281C194.505 96.6916 193.775 96.2606 193.084 95.8082C193.148 95.8503 192.065 98.9955 191.968 99.301C191.432 100.981 190.792 102.618 189.987 104.198C189.804 104.558 188.626 106.687 188.048 106.44C195.983 109.961 200.653 125.291 202.439 133.955C202.547 134.478 211.949 131.997 212.808 131.686C214.148 131.2 215.58 131.174 216.955 130.758C219.185 130.084 221.564 128.928 222.45 126.171C223.019 124.403 223.274 122.066 223.207 119.91Z" fill="black"/>
<path d="M217.3 97.6325C217.3 97.6325 210.353 91.6196 210.235 87.5785C210.235 87.5785 210.062 86.6553 210.862 85.6701C210.862 85.6701 212.506 83.5411 211.339 81.5907C211.339 81.5907 210.932 80.4225 211.458 79.4026C211.458 79.4026 213.698 71.7854 210.732 68.1848C210.732 68.1848 208.646 63.957 203.989 63.3711C203.989 63.3711 205.234 56.2844 196.994 57.2755C196.994 57.2755 192.395 57.5161 193.731 63.4523C193.731 63.4523 185.3 66.3761 186.283 75.8132C186.283 75.8132 187.021 80.1782 188.56 82.0017C189.192 82.7522 188.474 84.6089 188.636 85.5417C189.096 88.177 191.792 92.7701 194.436 93.8785C195.834 94.4644 202.037 97.7558 208.104 92.0749L209.221 90.9658C209.221 90.9643 216.298 97.2805 217.3 97.6325Z" fill="black"/>
</g>
<defs>
<linearGradient id="paint0_linear_3226_526" x1="7.08845" y1="109.701" x2="322.32" y2="109.701" gradientUnits="userSpaceOnUse">
<stop stop-color="#7CC6BD"/>
<stop offset="0.4975" stop-color="#89E4B9"/>
<stop offset="1" stop-color="#2BBFB5"/>
</linearGradient>
<linearGradient id="paint1_linear_3226_526" x1="0" y1="191.859" x2="86.7217" y2="191.859" gradientUnits="userSpaceOnUse">
<stop stop-color="#7CC6BD"/>
<stop offset="0.4975" stop-color="#89E4B9"/>
<stop offset="1" stop-color="#2BBFB5"/>
</linearGradient>
<linearGradient id="paint2_linear_3226_526" x1="152.983" y1="23.3375" x2="161.867" y2="23.9494" gradientUnits="userSpaceOnUse">
<stop stop-color="#7CC6BD"/>
<stop offset="0.4975" stop-color="#89E4B9"/>
<stop offset="1" stop-color="#2BBFB5"/>
</linearGradient>
<linearGradient id="paint3_linear_3226_526" x1="195.95" y1="110.469" x2="338.54" y2="106.664" gradientUnits="userSpaceOnUse">
<stop stop-color="#7CC6BD"/>
<stop offset="0.4975" stop-color="#89E4B9"/>
<stop offset="1" stop-color="#2BBFB5"/>
</linearGradient>
<clipPath id="clip0_3226_526">
<rect width="339" height="222.534" fill="white"/>
</clipPath>
</defs>
</svg>
