<svg height="512" viewBox="0 0 64 64" width="512" xmlns="http://www.w3.org/2000/svg"><g id="_14._Men_sign" data-name="14. Men sign"><path d="m61 5v20.76a2 2 0 0 1 -2 2h-2.62a2 2 0 0 1 -2-2v-11.14c-.02.02-14.42 14.42-14.45 14.44 9.647 13.666-.652 32.711-17.59 31.92a20.323 20.323 0 0 1 -19.32-21.27c.74-15.817 18.86-24.861 31.93-15.66l14.43-14.43h-11.14a2 2 0 0 1 -2-2v-2.62a2 2 0 0 1 2-2h20.76a2 2 0 0 1 2 2zm-24.81 35.69a12.875 12.875 0 1 0 -12.88 12.87 12.884 12.884 0 0 0 12.88-12.87z" fill="#a5ccf2"/></g></svg>