<svg width="35" height="30" viewBox="0 0 35 30" fill="none" xmlns="http://www.w3.org/2000/svg">
<path d="M0.110854 19.982C0.109032 19.7077 0.125431 19.4425 0.160961 19.2034C0.368369 17.802 0.598859 16.3649 1.13484 15.0749C1.379 14.4874 1.69177 13.9358 2.09141 13.475C2.29366 13.2418 2.51626 13.033 2.75554 12.8529C2.89007 12.7515 3.37444 12.3362 3.53386 12.389C5.78014 13.1378 6.88004 12.9853 7.80109 12.9861C7.85629 12.9862 7.91334 12.9865 7.97189 12.9866C8.76534 12.9887 9.62756 13.5576 9.98216 14.3091C10.3748 15.1413 10.1485 16.2799 9.55876 16.9694C8.00894 18.7814 7.11342 21.9387 6.75462 24.0102C6.72699 24.1694 3.76436 23.5168 3.49287 23.4314C3.06894 23.2984 2.62194 23.3054 2.18799 23.1937C1.48407 23.0132 0.728222 22.6883 0.419994 21.8647C0.221694 21.3371 0.115106 20.6335 0.110854 19.982Z" fill="black" fill-opacity="0.6"/>
<path d="M10.6497 17.7211C11.9722 15.8581 14.5911 16.6015 16.7919 16.5658C19.0069 16.5298 21.6264 15.6745 23.0202 17.4976C24.5577 19.5083 25.6694 22.2749 26.0919 24.8302C26.247 25.7215 26.0214 26.2013 25.4167 26.7883C24.9637 27.2281 24.5441 27.8997 24.024 28.2468C23.6567 28.4921 23.2076 28.5825 23.6097 28.4085C23.7156 28.3626 23.805 28.3313 23.805 28.3561C23.805 28.5069 23.588 28.4896 23.5791 28.3389C23.5704 28.1902 23.635 28.0831 23.805 28.3561C24.0069 28.6799 23.7191 28.3576 23.3691 28.5846C23.3469 28.5991 23.3537 28.5909 23.3302 28.6026C23.8577 28.3271 23.5954 28.6469 23.1346 28.9282C22.8144 29.1235 21.7541 29.3153 22.1034 29.1876C22.6426 28.9903 21.5064 29.3625 20.9359 29.3632C19.8015 29.3644 18.9845 29.3791 17.6482 29.3649C16.7919 29.3559 15.7273 29.5576 15 29.3649C14.1453 29.1382 13.3846 29.2246 12.6031 29.1274C11.367 28.9735 10.2697 28.1092 9.11045 27.6297C8.30905 27.2983 7.71233 26.4666 7.81497 25.4321C8.1241 22.7563 9.14455 19.8412 10.6497 17.7211Z" fill="black" fill-opacity="0.6"/>
<path d="M10.8396 7.66371C11.1162 8.20067 12.5784 7.38273 13.7959 6.65585C14.9917 5.94188 17.214 4.43218 18.4375 5.77189C18.5016 5.84212 18.7081 6.2428 18.811 6.22904C18.8585 6.22279 18.9048 6.21827 18.9498 6.21564C19.2141 6.20011 19.4763 6.28277 19.7168 6.40016C20.3895 6.72855 21.7071 7.76009 21.4081 10.7419C21.4021 10.8024 21.3656 10.851 21.3106 10.8332C21.2391 10.8099 21.1466 10.8563 21.1446 10.9356C21.084 13.3271 19.2771 15.2854 16.9523 15.3847C14.5086 15.4893 12.4242 13.5013 12.2966 10.945C12.2773 10.5558 12.3091 10.1773 12.3779 9.81257C12.3829 9.78585 12.3861 9.75892 12.3874 9.73171C12.3985 9.49665 12.2784 9.27065 12.0763 9.17263C11.4183 8.85354 11.1877 8.56009 10.8396 7.66371Z" fill="black" fill-opacity="0.6"/>
<path d="M11.0038 10.3176C10.982 10.3547 10.9575 10.3894 10.9299 10.4219C10.2992 11.163 9.34424 12.0879 7.11064 12.2424C6.54768 12.2814 5.89721 12.2682 5.33608 12.2064C5.07096 12.1772 4.80738 12.1364 4.54681 12.0825C4.09434 11.9886 3.65098 11.8549 3.22979 11.6748C2.53164 11.3764 1.86326 10.9659 1.36888 10.4143C1.1475 10.167 1.02633 9.90291 0.872978 9.6242C0.840789 9.56547 0.530129 8.73263 0.638541 8.75259C0.718329 8.76743 0.785463 8.6402 0.758201 8.55941C0.685983 8.34544 0.619309 8.11839 0.571086 7.89849C0.541764 7.76478 0.665088 7.72096 0.727404 7.84133C0.748918 7.88289 0.770873 7.92392 0.793549 7.96357C0.841176 8.04687 0.930578 8.00063 0.921403 7.90375C0.914654 7.83249 0.988054 7.7862 1.04726 7.82081C1.18509 7.9014 1.32785 7.96737 1.48792 8.01108C1.56262 8.03132 1.64218 8.05604 1.71931 8.06335C1.91003 8.0819 2.11986 7.96754 2.28688 7.89194C2.45633 7.81525 2.51919 7.66913 2.59268 7.51516C2.66981 7.3536 2.76881 7.19457 2.82651 7.02738C2.95466 6.65593 2.95799 6.28306 2.95799 5.89532C2.95799 5.28053 3.05883 4.57611 3.47394 4.08187C3.60179 3.92986 3.78216 3.8009 3.94798 3.68541C4.09434 3.58341 4.24861 3.47637 4.40196 3.37521C5.17421 2.86608 6.24739 2.72868 7.16479 2.89587C7.62059 2.97876 8.07308 3.14453 8.45388 3.39263C8.59084 3.482 8.69409 3.59607 8.82528 3.68654C8.98744 3.79837 9.18058 3.89081 9.36186 3.9723C9.24829 3.92116 9.15354 3.98774 9.17451 4.09087C9.19909 4.21169 9.35306 4.26367 9.44083 4.3328C9.67375 4.51656 9.82679 4.85737 9.95828 5.1083C10.2553 5.6756 10.4554 6.28363 10.5936 6.89981C10.6151 6.99618 10.5585 7.09588 10.465 7.09857C9.96528 7.11286 9.59221 6.97896 9.45964 6.71183C9.81346 7.65748 10.1379 8.50105 10.7366 9.07052C11.0696 9.38723 11.2408 9.91557 11.0038 10.3176Z" fill="black" fill-opacity="0.6"/>
<path d="M33.4408 20.0304C33.432 19.7561 33.4055 19.4914 33.3608 19.2537C33.0995 17.8594 32.814 16.4299 32.2281 15.1576C31.854 14.345 31.305 13.6015 30.571 13.0311C30.3571 12.8651 30.1353 12.694 29.8853 12.576C29.6873 12.4824 29.5366 12.3141 29.2941 12.3678C29.0775 12.4155 28.9388 12.6366 28.7696 12.7535C28.3393 13.0516 27.9211 13.3304 27.3821 13.4197C26.745 13.5251 26.0745 13.4731 25.4468 13.3413C25.1953 13.2885 24.946 13.2115 24.712 13.1112C24.4741 13.0095 24.2461 12.8791 24.0301 12.7423C24.0501 12.7549 23.712 13.7061 23.6815 13.7985C23.514 14.3065 23.3141 14.8016 23.0626 15.2795C23.0056 15.3883 22.6375 16.0323 22.4568 15.9575C24.936 17.0222 26.3951 21.6581 26.9528 24.2782C26.9865 24.4363 29.9238 23.6861 30.192 23.5921C30.6108 23.4451 31.0581 23.4371 31.4875 23.3113C32.1841 23.1076 32.9275 22.7577 33.2041 21.9241C33.3818 21.3888 33.4613 20.6819 33.4408 20.0304Z" fill="black" fill-opacity="0.6"/>
<path d="M29.0987 11.3005C29.5627 11.6998 29.8924 11.5526 29.6094 10.9949C29.4895 10.7588 29.4095 10.527 29.3914 10.3118C29.388 10.2722 29.3839 10.2331 29.3832 10.1934C29.3817 10.1053 29.3995 9.92964 29.5354 9.73835C29.566 9.6952 29.6005 9.65521 29.6297 9.61097C29.7205 9.47353 29.9097 9.13459 29.8532 8.76666C29.8177 8.53628 29.7067 8.44826 29.6887 8.2156C29.6717 7.99625 29.803 7.67588 29.8519 7.46195C29.9922 6.84659 30.2174 5.47829 29.6999 4.60813C29.6077 4.4531 29.6127 4.50913 29.5235 4.35218C28.8709 3.20452 27.4944 1.36099 26.2517 1.10966C25.9994 1.05863 25.6952 1.04428 25.3289 1.0808C25.2785 1.08582 25.2975 1.08585 25.247 1.08946C23.9555 1.18194 23.1542 3.26528 22.4149 4.3904C22.068 4.91823 21.8284 5.61568 21.8895 6.52042C21.8974 6.63601 21.9145 6.75197 21.9387 6.865C22.0187 7.23952 22.2414 8.13654 22.6164 8.56632C22.8135 8.79335 22.5894 9.35473 22.64 9.63684C22.7837 10.4337 23.626 11.8229 24.452 12.1578C24.889 12.3351 26.8269 13.3303 28.722 11.6124L28.9177 11.4245C29.0165 11.3295 28.995 11.2113 29.0987 11.3005Z" fill="black" fill-opacity="0.6"/>
</svg>
