<svg width="21" height="21" viewBox="0 0 21 21" fill="none" xmlns="http://www.w3.org/2000/svg">
<rect width="21" height="21" rx="10.5" fill="#6900EE"/>
<path d="M9.27737 10.571C8.65337 10.259 8.34137 9.767 8.34137 9.095C8.34137 8.771 8.42237 8.474 8.58437 8.204C8.74637 7.934 8.98937 7.721 9.31337 7.565C9.63737 7.403 10.0334 7.322 10.5014 7.322C10.9634 7.322 11.3564 7.403 11.6804 7.565C12.0104 7.721 12.2564 7.934 12.4184 8.204C12.5804 8.474 12.6614 8.771 12.6614 9.095C12.6614 9.431 12.5744 9.728 12.4004 9.986C12.2324 10.238 12.0074 10.433 11.7254 10.571C12.0674 10.697 12.3374 10.904 12.5354 11.192C12.7334 11.474 12.8324 11.807 12.8324 12.191C12.8324 12.581 12.7334 12.926 12.5354 13.226C12.3374 13.526 12.0614 13.757 11.7074 13.919C11.3534 14.081 10.9514 14.162 10.5014 14.162C10.0514 14.162 9.64937 14.081 9.29537 13.919C8.94737 13.757 8.67437 13.526 8.47637 13.226C8.27837 12.926 8.17937 12.581 8.17937 12.191C8.17937 11.801 8.27837 11.465 8.47637 11.183C8.67437 10.901 8.94137 10.697 9.27737 10.571ZM11.6804 9.221C11.6804 8.885 11.5754 8.627 11.3654 8.447C11.1554 8.267 10.8674 8.177 10.5014 8.177C10.1414 8.177 9.85637 8.267 9.64637 8.447C9.43637 8.627 9.33137 8.888 9.33137 9.23C9.33137 9.53 9.43937 9.776 9.65537 9.968C9.87737 10.154 10.1594 10.247 10.5014 10.247C10.8434 10.247 11.1254 10.151 11.3474 9.959C11.5694 9.767 11.6804 9.521 11.6804 9.221ZM10.5014 11.021C10.1054 11.021 9.78137 11.12 9.52937 11.318C9.28337 11.51 9.16037 11.789 9.16037 12.155C9.16037 12.497 9.28037 12.776 9.52037 12.992C9.76037 13.202 10.0874 13.307 10.5014 13.307C10.9094 13.307 11.2304 13.199 11.4644 12.983C11.7044 12.767 11.8244 12.491 11.8244 12.155C11.8244 11.795 11.7014 11.516 11.4554 11.318C11.2154 11.12 10.8974 11.021 10.5014 11.021Z" fill="white"/>
</svg>
