<svg width="23" height="19" viewBox="0 0 23 19" fill="none" xmlns="http://www.w3.org/2000/svg">
<path d="M0.0664977 12.0865C0.0652769 11.913 0.0762647 11.7451 0.100071 11.5938C0.239044 10.7071 0.39348 9.7976 0.752611 8.98128C0.916204 8.60948 1.12578 8.26044 1.39355 7.96884C1.52907 7.82126 1.67821 7.68915 1.83855 7.57517C1.92869 7.51098 2.25323 7.24818 2.36005 7.28161C3.86515 7.75547 4.60213 7.65892 5.21927 7.65945C5.54971 7.65981 5.97924 7.6719 6.33207 7.52717C6.50746 8.27752 6.85926 8.93131 7.34353 9.46421C5.71167 10.1888 4.82392 12.9681 4.5181 14.6358C4.49958 14.7364 2.51449 14.3235 2.33258 14.2695C2.04854 14.1852 1.74902 14.1896 1.45826 14.119C0.986607 14.0047 0.480159 13.7992 0.273634 13.278C0.140765 12.9441 0.0693464 12.4989 0.0664977 12.0865Z" fill="black" fill-opacity="0.6"/>
<path d="M8.99224 9.03923C9.57926 9.70797 10.547 9.93538 11.2435 9.92472C11.9605 9.91369 12.9185 9.65694 13.478 8.94659C15.4829 9.81145 17.0354 12.6441 17.4749 15.1546C17.6128 15.9028 17.3016 16.1927 16.5446 16.7906C16.1849 17.3094 16.1055 17.3505 15.7537 17.4399C15.2826 17.6724 15.9426 17.3338 15.9426 17.3857C15.9426 17.5461 15.8156 17.3971 15.8883 17.5418C15.7611 17.5418 15.7377 17.0753 15.9426 17.3857C16.0997 17.6238 15.814 17.3102 15.5348 17.6305C15.5348 17.6305 15.6824 17.5144 15.6244 17.5418C16.0955 17.3094 15.6265 17.7462 15.1554 17.9027C14.1608 18.023 15.558 17.7232 14.5971 18.0242C13.4978 18.0185 12.9225 18.0352 11.8173 18.0242C11.2435 18.0185 10.5302 18.1462 10.0429 18.0242C9.05643 17.7771 8.25679 18.1178 7.25103 17.4399C6.81092 17.4222 6.51353 17.089 6.09661 16.9261C5.55965 16.7164 5.15982 16.1901 5.22859 15.5354C5.54601 12.9405 6.98274 9.98997 8.99224 9.03923Z" fill="black" fill-opacity="0.6"/>
<path d="M7.25525 4.2914C7.44061 4.63119 8.42034 4.11359 9.23606 3.6536C10.0373 3.20179 11.5264 2.24643 12.3462 3.09422C12.3891 3.13867 12.5275 3.39223 12.5964 3.38351C12.7376 3.36591 12.8656 3.37018 12.9527 3.40307C12.9527 3.40307 14.6342 3.7354 14.3286 6.31041C14.2861 6.30472 14.2281 6.28427 14.1609 6.25458C14.1762 7.81627 12.9454 9.11302 11.351 9.17739C9.71362 9.24353 8.31697 7.98554 8.23152 6.36784C8.21809 6.11251 8.24149 5.86447 8.29113 5.62585C8.295 5.5325 8.30314 5.43915 8.31921 5.34616C7.69048 5.09403 7.52587 4.94947 7.25525 4.2914Z" fill="black" fill-opacity="0.6"/>
<path d="M7.34331 6.00599C6.86962 6.53728 6.12898 7.23873 4.15894 7.20157C4.11784 7.24993 3.64456 7.17401 3.56765 7.166C3.39002 7.14751 3.2134 7.12173 3.03882 7.08759C2.73564 7.0282 2.43857 6.94357 2.15636 6.82959C1.68857 6.64076 1.24072 6.38098 0.909469 6.03194C0.761137 5.87547 0.679952 5.70833 0.577198 5.53195C0.555629 5.49479 0.347475 4.96776 0.420115 4.98039C0.456537 4.98679 0.50761 4.96776 0.543421 4.97434C0.440463 4.70674 0.342592 4.38793 0.326111 4.13064C0.433341 4.28907 0.520428 4.53213 0.659604 4.6534C0.627252 4.55454 0.599173 4.45497 0.608532 4.34063C0.727971 4.41442 0.848632 4.47488 0.989232 4.51115C1.03929 4.52395 1.0926 4.5396 1.14428 4.54423C1.27206 4.55596 1.41266 4.48359 1.52457 4.43576C1.63811 4.38722 1.68023 4.29476 1.72947 4.19732C1.78115 4.09508 1.84748 3.99444 1.88614 3.88865C1.97201 3.65358 1.97425 3.41763 1.97425 3.17226C1.97425 2.78321 2.0418 2.33745 2.31995 2.02468C2.40561 1.92849 2.52647 1.84688 2.63757 1.7738C2.73564 1.70925 2.83901 1.64151 2.94177 1.5775C3.4592 1.25531 4.17827 1.16836 4.79297 1.27416C5.09838 1.32661 5.40156 1.43152 5.65671 1.58852C5.74848 1.64506 5.81766 1.71725 5.90556 1.77451C6.01422 1.84528 6.14363 1.90377 6.2651 1.95534C6.189 1.92298 6.12552 1.96512 6.13956 2.03038C6.15604 2.10683 6.2592 2.13973 6.318 2.18347C6.47407 2.29975 6.57662 2.51543 6.66472 2.67422C6.86372 3.03321 6.99781 3.41799 7.09039 3.80792C7.09832 3.84153 7.11216 3.88225 7.12864 3.92634C6.73187 3.9619 6.43012 3.87833 6.33062 3.68897C6.64845 4.49124 6.93087 5.1774 7.66826 5.48519L7.34331 6.00599Z" fill="black" fill-opacity="0.6"/>
<path d="M22.3989 12.1171C22.393 11.9436 22.3753 11.7761 22.3454 11.6256C22.1702 10.7434 21.9789 9.83868 21.5864 9.03356C21.3357 8.51934 20.9679 8.04886 20.4761 7.68791C20.3328 7.58282 20.1841 7.47454 20.0166 7.39986C19.884 7.34065 19.783 7.23414 19.6205 7.2681C19.4754 7.29833 19.3824 7.43827 19.2691 7.51223C18.9807 7.70089 18.7006 7.87727 18.3394 7.93382C17.9125 8.0005 17.4632 7.9676 17.0426 7.88421C16.8742 7.85078 16.7071 7.80206 16.5502 7.73858C16.3909 7.67422 16.2381 7.59172 16.0934 7.50512C16.1069 7.51312 15.8802 8.115 15.8599 8.1735C15.7475 8.49498 15.6137 8.80828 15.4452 9.11073C15.4069 9.17954 15.1603 9.58708 15.0392 9.53978C16.7004 10.2135 17.6781 13.1472 18.0517 14.8052C18.0743 14.9053 20.0425 14.4306 20.2221 14.371C20.5027 14.278 20.8024 14.273 21.0902 14.1934C21.5569 14.0645 22.055 13.8431 22.2404 13.3155C22.3594 12.9768 22.4127 12.5294 22.3989 12.1171Z" fill="black" fill-opacity="0.6"/>
<path d="M21.1624 7.85378C21.1624 7.85378 19.7082 6.70319 19.6834 5.92972C19.6834 5.92972 19.6471 5.75298 19.8146 5.5645C19.8146 5.5645 20.1587 5.15715 19.9143 4.78393C19.9143 4.78393 19.829 4.56042 19.9393 4.36519C19.9393 4.36519 20.4081 2.90752 19.7873 2.21851C19.7873 2.21851 19.3507 1.40949 18.3758 1.29729C18.3758 1.29729 18.6363 -0.0588509 16.9116 0.13087C16.9116 0.13087 15.949 0.176922 16.2286 1.31294C16.2286 1.31294 14.4639 1.8725 14.6694 3.67832C14.6694 3.67832 14.8238 4.51366 15.1461 4.86252C15.2782 5.00619 15.128 5.36145 15.162 5.53997C15.2582 6.04423 15.8226 6.92331 16.3761 7.13526C16.6689 7.24746 17.9673 7.87725 19.2371 6.79013L19.4711 6.57783C19.4713 6.57783 20.9526 7.78657 21.1624 7.85378Z" fill="black" fill-opacity="0.6"/>
</svg>
