<svg width="24" height="25" viewBox="0 0 24 25" fill="none" xmlns="http://www.w3.org/2000/svg">
<g clip-path="url(#clip0_2272_294)">
<path d="M23.6142 20.4498L18.8223 16.093C18.5958 15.8871 18.2982 15.7773 17.9922 15.7868C17.6863 15.7962 17.396 15.9242 17.1826 16.1437L14.3617 19.0447C13.6827 18.915 12.3177 18.4895 10.9125 17.0879C9.50737 15.6816 9.08182 14.313 8.95569 13.6387L11.8544 10.8167C12.0741 10.6034 12.2023 10.3131 12.2118 10.0071C12.2212 9.70102 12.1112 9.40332 11.9051 9.17694L7.54937 4.38628C7.34313 4.1592 7.05648 4.02145 6.75031 4.0023C6.44414 3.98315 6.14257 4.08411 5.90964 4.28373L3.35162 6.47748C3.14781 6.68202 3.02617 6.95425 3.00976 7.24252C2.99208 7.53722 2.65494 14.5181 8.06805 19.9335C12.7904 24.6546 18.7056 25 20.3348 25C20.5729 25 20.7191 24.9929 20.758 24.9906C21.0462 24.9744 21.3183 24.8523 21.5218 24.6475L23.7144 22.0884C23.9148 21.8562 24.0165 21.5548 23.9978 21.2487C23.9791 20.9426 23.8414 20.6559 23.6142 20.4498Z" fill="#59C09B"/>
</g>
<defs>
<clipPath id="clip0_2272_294">
<rect width="24" height="24" fill="white" transform="translate(0 0.5)"/>
</clipPath>
</defs>
</svg>
