<svg width="34" height="34" viewBox="0 0 34 34" fill="none" xmlns="http://www.w3.org/2000/svg">
<g clip-path="url(#clip0_3652_341)">
<path d="M29.7826 8.23472H26.2765L24.3408 5.31298C23.6104 4.21733 22.3321 3.55994 21.0173 3.55994H12.9826C11.6678 3.55994 10.3895 4.21733 9.65908 5.31298L7.72343 8.23472H4.21734C1.98952 8.23472 0.199951 10.0243 0.199951 12.2521V26.4225C0.199951 28.6504 1.98952 30.4399 4.21734 30.4399H29.7826C32.0104 30.4399 33.7999 28.6504 33.7999 26.4225V12.2521C33.7999 10.0243 32.0104 8.23472 29.7826 8.23472ZM17 27.153C11.9965 27.153 7.94256 23.0991 7.94256 18.0956C7.94256 13.0921 11.9965 9.07472 17 9.07472C22.0034 9.07472 26.0573 13.1286 26.0573 18.1321C26.0573 23.0991 22.0034 27.153 17 27.153ZM29.2713 13.8956C29.2347 13.8956 29.1982 13.8956 29.1252 13.8956H27.6643C27.0069 13.8591 26.4956 13.3112 26.5321 12.6538C26.5686 12.033 27.0434 11.5582 27.6643 11.5217H29.1252C29.7826 11.4852 30.3304 11.9965 30.3669 12.6538C30.4034 13.3112 29.9286 13.8591 29.2713 13.8956Z" fill="#FFFAFA"/>
<path d="M17 13.0922C14.2243 13.0922 11.96 15.3565 11.96 18.1322C11.96 20.9078 14.2243 23.1356 17 23.1356C19.7756 23.1356 22.04 20.8713 22.04 18.0956C22.04 15.32 19.7756 13.0922 17 13.0922Z" fill="#FFFAFA"/>
</g>
<defs>
<clipPath id="clip0_3652_341">
<rect width="33.6" height="33.6" fill="white" transform="translate(0.199951 0.199951)"/>
</clipPath>
</defs>
</svg>
