<svg width="28" height="28" viewBox="0 0 28 28" fill="none" xmlns="http://www.w3.org/2000/svg">
<path d="M23.625 19.3725V8.62751C24.2245 8.4756 24.773 8.16757 25.2147 7.73477C25.6565 7.30197 25.9756 6.75986 26.1398 6.16361C26.3039 5.56737 26.3071 4.93828 26.1491 4.34039C25.9911 3.7425 25.6774 3.19716 25.2401 2.75987C24.8029 2.32258 24.2575 2.00896 23.6596 1.85094C23.0617 1.69291 22.4326 1.69613 21.8364 1.86025C21.2402 2.02437 20.698 2.34355 20.2652 2.78528C19.8324 3.22701 19.5244 3.77553 19.3725 4.37501H8.62751C8.4756 3.77553 8.16757 3.22701 7.73477 2.78528C7.30197 2.34355 6.75986 2.02437 6.16361 1.86025C5.56737 1.69613 4.93828 1.69291 4.34039 1.85094C3.7425 2.00896 3.19716 2.32258 2.75987 2.75987C2.32258 3.19716 2.00896 3.7425 1.85094 4.34039C1.69291 4.93828 1.69613 5.56737 1.86025 6.16361C2.02437 6.75986 2.34355 7.30197 2.78528 7.73477C3.22701 8.16757 3.77553 8.4756 4.37501 8.62751V19.3725C3.77553 19.5244 3.22701 19.8324 2.78528 20.2652C2.34355 20.698 2.02437 21.2402 1.86025 21.8364C1.69613 22.4326 1.69291 23.0617 1.85094 23.6596C2.00896 24.2575 2.32258 24.8029 2.75987 25.2401C3.19716 25.6774 3.7425 25.9911 4.34039 26.1491C4.93828 26.3071 5.56737 26.3039 6.16361 26.1398C6.75986 25.9756 7.30197 25.6565 7.73477 25.2147C8.16757 24.773 8.4756 24.2245 8.62751 23.625H19.3725C19.5244 24.2245 19.8324 24.773 20.2652 25.2147C20.698 25.6565 21.2402 25.9756 21.8364 26.1398C22.4326 26.3039 23.0617 26.3071 23.6596 26.1491C24.2575 25.9911 24.8029 25.6774 25.2401 25.2401C25.6774 24.8029 25.9911 24.2575 26.1491 23.6596C26.3071 23.0617 26.3039 22.4326 26.1398 21.8364C25.9756 21.2402 25.6565 20.698 25.2147 20.2652C24.773 19.8324 24.2245 19.5244 23.625 19.3725ZM22.75 3.50001C23.0961 3.50001 23.4345 3.60264 23.7223 3.79493C24.01 3.98723 24.2343 4.26054 24.3668 4.58031C24.4993 4.90008 24.5339 5.25195 24.4664 5.59141C24.3989 5.93088 24.2322 6.2427 23.9874 6.48744C23.7427 6.73219 23.4309 6.89886 23.0914 6.96638C22.7519 7.03391 22.4001 6.99925 22.0803 6.8668C21.7605 6.73434 21.4872 6.51004 21.2949 6.22225C21.1026 5.93447 21 5.59612 21 5.25001C21 4.78588 21.1844 4.34076 21.5126 4.01257C21.8408 3.68438 22.2859 3.50001 22.75 3.50001ZM3.50001 5.25001C3.50001 4.90389 3.60264 4.56554 3.79493 4.27776C3.98723 3.98997 4.26054 3.76567 4.58031 3.63322C4.90008 3.50076 5.25195 3.46611 5.59141 3.53363C5.93088 3.60116 6.2427 3.76783 6.48744 4.01257C6.73219 4.25731 6.89886 4.56913 6.96638 4.9086C7.03391 5.24807 6.99925 5.59993 6.8668 5.9197C6.73434 6.23947 6.51004 6.51279 6.22225 6.70508C5.93447 6.89737 5.59612 7.00001 5.25001 7.00001C4.78588 7.00001 4.34076 6.81563 4.01257 6.48744C3.68438 6.15926 3.50001 5.71414 3.50001 5.25001ZM5.25001 24.5C4.90389 24.5 4.56554 24.3974 4.27776 24.2051C3.98997 24.0128 3.76567 23.7395 3.63322 23.4197C3.50076 23.0999 3.46611 22.7481 3.53363 22.4086C3.60116 22.0691 3.76783 21.7573 4.01257 21.5126C4.25731 21.2678 4.56913 21.1012 4.9086 21.0336C5.24807 20.9661 5.59993 21.0008 5.9197 21.1332C6.23947 21.2657 6.51279 21.49 6.70508 21.7778C6.89737 22.0655 7.00001 22.4039 7.00001 22.75C7.00001 23.2141 6.81563 23.6593 6.48744 23.9874C6.15926 24.3156 5.71414 24.5 5.25001 24.5ZM19.3725 21.875H8.62751C8.47039 21.2731 8.15571 20.724 7.71586 20.2842C7.27601 19.8443 6.72688 19.5296 6.12501 19.3725V8.62751C6.72688 8.47039 7.27601 8.15571 7.71586 7.71586C8.15571 7.27601 8.47039 6.72688 8.62751 6.12501H19.3725C19.5296 6.72688 19.8443 7.27601 20.2842 7.71586C20.724 8.15571 21.2731 8.47039 21.875 8.62751V19.3725C21.2731 19.5296 20.724 19.8443 20.2842 20.2842C19.8443 20.724 19.5296 21.2731 19.3725 21.875ZM22.75 24.5C22.4039 24.5 22.0655 24.3974 21.7778 24.2051C21.49 24.0128 21.2657 23.7395 21.1332 23.4197C21.0008 23.0999 20.9661 22.7481 21.0336 22.4086C21.1012 22.0691 21.2678 21.7573 21.5126 21.5126C21.7573 21.2678 22.0691 21.1012 22.4086 21.0336C22.7481 20.9661 23.0999 21.0008 23.4197 21.1332C23.7395 21.2657 24.0128 21.49 24.2051 21.7778C24.3974 22.0655 24.5 22.4039 24.5 22.75C24.5 23.2141 24.3156 23.6593 23.9874 23.9874C23.6593 24.3156 23.2141 24.5 22.75 24.5Z" fill="#59C09B"/>
<path d="M18.375 9.625H9.625V11.375H13.125V19.25H14.875V11.375H18.375V9.625Z" fill="#59C09B"/>
</svg>
